SplineFontDB: 3.0
FontName: BetecknaLowerCaseBold
FullName: BetecknaLowerCase
FamilyName: BetecknaLowerCase
Weight: Medium
Copyright: Drawn by Johan Mattsson
Version: 
ItalicAngle: 0
UnderlinePosition: -200
UnderlineWidth: 50
Ascent: 800
Descent: 200
LayerCount: 2
Layer: 0 1 "Back"  1
Layer: 1 1 "Fore"  0
XUID: [1021 880 1988980000 3066022]
FSType: 0
OS2Version: 3
OS2_WeightWidthSlopeOnly: 0
OS2_UseTypoMetrics: 1
CreationTime: 1176121501
ModificationTime: 1406153153
PfmFamily: 17
TTFWeight: 500
TTFWidth: 5
LineGap: 90
VLineGap: 0
Panose: 2 0 6 3 0 0 0 0 0 0
OS2TypoAscent: 0
OS2TypoAOffset: 1
OS2TypoDescent: 0
OS2TypoDOffset: 1
OS2TypoLinegap: 0
OS2WinAscent: 0
OS2WinAOffset: 1
OS2WinDescent: 0
OS2WinDOffset: 1
HheadAscent: 0
HheadAOffset: 1
HheadDescent: 0
HheadDOffset: 1
OS2SubXSize: 650
OS2SubYSize: 699
OS2SubXOff: 0
OS2SubYOff: 479
OS2SupXSize: 650
OS2SupYSize: 699
OS2SupXOff: 0
OS2SupYOff: 0
OS2StrikeYSize: 49
OS2StrikeYPos: 258
OS2Vendor: 'PfEd'
OS2CodePages: 00000010.01140000
OS2UnicodeRanges: 800000cf.40000000.00000000.00000000
Lookup: 4 0 1 "'liga' Standard Ligatures in Latin lookup 0"  {"'liga' Standard Ligatures in Latin lookup 0 subtable"  } ['liga' ('latn' <'dflt' > ) ]
Lookup: 258 0 0 "'kern' Horizontal Kerning in Latin lookup 0"  {"'kern' Horizontal Kerning in Latin lookup 0 subtable"  } ['kern' ('latn' <'dflt' > ) ]
DEI: 91125
ShortTable: maxp 16
  1
  0
  182
  92
  5
  70
  4
  2
  0
  1
  1
  0
  64
  0
  2
  1
EndShort
LangName: 1033 "" "" "" "FontForge 2.0 : BetecknaLowerCase : 4-10-2008" 
GaspTable: 1 65535 2 0
Encoding: UnicodeBmp
UnicodeInterp: none
NameList: Adobe Glyph List
DisplaySize: -72
AntiAlias: 1
FitToEm: 1
Grid
-1000 142 m 0
 2000 142 l 0
EndSplineSet
BeginChars: 65539 190

StartChar: .notdef
Encoding: 65536 -1 0
Width: 500
Flags: W
LayerCount: 2
Fore
SplineSet
30 -20 m 1
 30 553 l 1
 470 553 l 1
 470 -20 l 1
 30 -20 l 1
120 70 m 1
 380 70 l 1
 380 463 l 1
 120 463 l 1
 120 70 l 1
EndSplineSet
EndChar

StartChar: exclam
Encoding: 33 33 4
Width: 238
GlyphClass: 2
Flags: W
LayerCount: 2
Fore
SplineSet
54.2703 713 m 1
 184.228 713 l 1
 178.775 232 l 1
 47.726 232 l 1
 54.2703 713 l 1
34 60 m 0
 34 96.171 34 96.171 58.9495 117.655 c 0
 82.3804 137.832 82.3804 137.832 111.546 138.495 c 0
 141.043 139.165 141.043 139.165 164.804 119.364 c 0
 190 98.3675 190 98.3675 190 62 c 0
 190 24.202 190 24.202 165.514 1.75692 c 0
 141.78 -20 141.78 -20 112 -20 c 0
 82.396 -20 82.396 -20 58.7127 1.05181 c 0
 34 23.0187 34 23.0187 34 60 c 0
EndSplineSet
EndChar

StartChar: quotedbl
Encoding: 34 34 5
Width: 340
GlyphClass: 2
Flags: W
LayerCount: 2
Fore
SplineSet
228.512 553.503 m 2
 225.881 564.906 225.881 564.906 203.5 619.402 c 0
 179.139 678.718 179.139 678.718 179.997 699.437 c 0
 180.494 734.622 180.494 734.622 204.484 755.185 c 0
 227.401 774.828 227.401 774.828 256.035 775.495 c 0
 285.223 776.173 285.223 776.173 309.05 755.655 c 0
 334 734.171 334 734.171 334 696 c 2
 334 694.345 l 1
 333.728 692.712 l 2
 329.385 666.652 329.385 666.652 319.625 641.712 c 0
 310.106 617.387 310.106 617.387 302.911 604.659 c 0
 295.935 592.317 295.935 592.317 281.385 571.531 c 0
 267.789 552.109 267.789 552.109 265.15 547.71 c 2
 239.655 505.218 l 1
 228.512 553.503 l 2
54.5122 553.503 m 2
 51.88 564.908 51.88 564.908 29.4996 619.402 c 0
 5.13869 678.717 5.13869 678.717 5.99652 699.437 c 0
 6.49429 734.622 6.49429 734.622 30.4842 755.185 c 0
 53.4005 774.828 53.4005 774.828 82.035 775.495 c 0
 111.223 776.174 111.223 776.174 135.05 755.655 c 0
 160 734.171 160 734.171 160 696 c 2
 160 694.345 l 1
 159.728 692.712 l 2
 155.385 666.654 155.385 666.654 145.625 641.712 c 0
 136.108 617.391 136.108 617.391 128.911 604.659 c 0
 121.935 592.317 121.935 592.317 107.385 571.531 c 0
 93.7903 552.111 93.7903 552.111 91.1499 547.71 c 2
 65.6548 505.218 l 1
 54.5122 553.503 l 2
EndSplineSet
EndChar

StartChar: numbersign
Encoding: 35 35 6
Width: 455
GlyphClass: 2
Flags: W
LayerCount: 2
Fore
SplineSet
85 640 m 1
 202 640 l 1
 202 500 l 1
 252 500 l 1
 252 640 l 1
 370 640 l 1
 370 500 l 1
 428 500 l 1
 428 369 l 1
 370 369 l 1
 370 326 l 1
 428 326 l 1
 428 199 l 1
 370 199 l 1
 370 50 l 1
 252 50 l 1
 252 199 l 1
 202 199 l 1
 202 50 l 1
 85 50 l 1
 85 199.342 l 1
 27 200.342 l 1
 27 326 l 1
 85 326 l 1
 85 370 l 1
 27 370 l 1
 27 501.348 l 1
 85 500.348 l 1
 85 640 l 1
202 369.777 m 1
 202 326 l 1
 252 326 l 1
 252 369.221 l 1
 202 369.777 l 1
EndSplineSet
EndChar

StartChar: dollar
Encoding: 36 36 7
Width: 733
GlyphClass: 2
Flags: W
LayerCount: 2
Fore
SplineSet
321.619 9.4769 m 1
 290.131 13.8791 290.131 13.8791 257.017 29.3881 c 0
 215.538 48.8146 215.538 48.8146 194.306 65.1475 c 0
 174.272 80.5586 174.272 80.5586 156.767 96.0032 c 2
 144.476 106.849 l 1
 205.462 212.05 l 1
 223.838 194.44 l 2
 247 172.242 247 172.242 262.577 160.442 c 0
 277.075 149.459 277.075 149.459 303.261 138.433 c 0
 328.038 128 328.038 128 356 128 c 0
 396.841 128 396.841 128 411.326 136.005 c 0
 428.738 145.627 428.738 145.627 451.954 183.46 c 0
 473.429 218.458 473.429 218.458 458.25 252.319 c 0
 443.538 285.137 443.538 285.137 401.381 302.508 c 0
 337.233 328.941 337.233 328.941 331.437 331.106 c 0
 268.325 353.136 268.325 353.136 235.345 381.935 c 0
 196.083 416.22 196.083 416.22 180.806 456.391 c 0
 165.708 496.092 165.708 496.092 169.062 538.574 c 0
 172.44 581.36 172.44 581.36 193.948 616.451 c 0
 215.51 651.632 215.51 651.632 254.71 675.15 c 0
 284.71 693.149 284.71 693.149 321.319 699.359 c 1
 307.814 770 l 1
 430.838 770 l 1
 418.432 699.697 l 1
 477.779 690.961 477.779 690.961 521.574 655.553 c 2
 535.707 644.127 l 1
 471.975 547.752 l 1
 454.734 563.033 l 2
 415.528 597.785 415.528 597.785 354.481 590.154 c 0
 329.417 587.022 329.417 587.022 312.804 570.021 c 0
 295.993 552.819 295.993 552.819 293.34 531.975 c 0
 290.848 512.391 290.848 512.391 308.128 488.827 c 0
 328.283 461.344 328.283 461.344 367.48 447.921 c 2
 440.48 422.921 l 2
 471.616 412.259 471.616 412.259 505.893 385.198 c 0
 536.908 360.711 536.908 360.711 561.179 324.037 c 0
 586.644 285.558 586.644 285.558 589.465 238.189 c 0
 592.461 187.871 592.461 187.871 569.323 134.984 c 0
 527.17 38.6335 527.17 38.6335 426.283 14.8976 c 1
 434.794 -50 l 1
 314.441 -50 l 1
 321.619 9.4769 l 1
EndSplineSet
EndChar

StartChar: percent
Encoding: 37 37 8
Width: 560
GlyphClass: 2
Flags: W
LayerCount: 2
Fore
SplineSet
127 473 m 0
 127 457.85 127 457.85 137.606 452.042 c 0
 148.883 445.866 148.883 445.866 159.715 451.943 c 0
 170 457.713 170 457.713 170 474 c 0
 170 484.445 170 484.445 164.433 488.941 c 0
 156.932 495 156.932 495 148.5 495 c 0
 140.577 495 140.577 495 133.251 488.52 c 0
 127 482.99 127 482.99 127 473 c 0
20 472 m 0
 20 512.056 20 512.056 39.359 541.094 c 0
 58.8702 570.36 58.8702 570.36 89.2694 582.147 c 0
 117.601 593.133 117.601 593.133 150.201 591.988 c 0
 182.969 590.837 182.969 590.837 211.297 576.961 c 0
 240.647 562.586 240.647 562.586 259.641 534.094 c 0
 279 505.056 279 505.056 279 469 c 0
 279 431.148 279 431.148 259.845 401.219 c 0
 240.73 371.35 240.73 371.35 210.998 357.395 c 0
 182.626 344.078 182.626 344.078 149.851 343.503 c 0
 116.885 342.924 116.885 342.924 88.3082 355.755 c 0
 58.2796 369.236 58.2796 369.236 39.0587 399.87 c 0
 20 430.245 20 430.245 20 472 c 0
391 161 m 0
 391 146.101 391 146.101 401.28 140.717 c 0
 412.674 134.749 412.674 134.749 423.715 140.943 c 0
 434 146.713 434 146.713 434 162 c 0
 434 175.773 434 175.773 424.382 180.699 c 0
 413.103 186.476 413.103 186.476 401.28 180.283 c 0
 391 174.899 391 174.899 391 161 c 0
284 160 m 0
 284 201.212 284 201.212 304.019 230.331 c 0
 323.972 259.353 323.972 259.353 353.639 271.096 c 0
 381.695 282.201 381.695 282.201 414.551 280.472 c 0
 447.13 278.758 447.13 278.758 475.297 264.961 c 0
 504.414 250.7 504.414 250.7 523.868 222.993 c 0
 544 194.321 544 194.321 544 157 c 0
 544 118.894 544 118.894 524.089 89.328 c 0
 504.601 60.3915 504.601 60.3915 475.297 46.0387 c 0
 446.8 32.0812 446.8 32.0812 413.851 31.5031 c 0
 380.802 30.9233 380.802 30.9233 352.667 43.8187 c 0
 323.372 57.2457 323.372 57.2457 303.709 87.635 c 0
 284 118.094 284 118.094 284 160 c 0
462.003 587.782 m 1
 546.812 499.997 l 1
 85.9969 23.2184 l 1
 1.1881 111.003 l 1
 462.003 587.782 l 1
EndSplineSet
EndChar

StartChar: ampersand
Encoding: 38 38 9
Width: 754
GlyphClass: 2
Flags: W
LayerCount: 2
Fore
SplineSet
317.379 423.902 m 2
 508.626 223.634 l 1
 531.857 284.438 531.857 284.438 528.04 344.737 c 2
 526.694 366 l 1
 651.46 366 l 1
 650.995 345.546 l 2
 648.106 218.358 648.106 218.358 599.679 127.992 c 1
 739.384 -20 l 1
 566.506 -20 l 1
 518.697 29.5468 l 1
 443.824 -30.4173 443.824 -30.4173 328.762 -41.9235 c 1
 272.536 -46.2488 272.536 -46.2488 215.729 -27.4915 c 0
 158.335 -8.5406 158.335 -8.5406 112.025 36.6925 c 0
 65.1924 82.4359 65.1924 82.4359 47.7442 144.595 c 2
 47.4765 145.549 l 1
 47.3043 146.524 l 2
 41 182.249 41 182.249 41 212.5 c 0
 41 244.464 41 244.464 52.1652 275.727 c 0
 62.7845 305.461 62.7845 305.461 76.2099 328.552 c 0
 89.6876 351.734 89.6876 351.734 108.971 373.696 c 0
 127.735 395.065 127.735 395.065 144.094 409.842 c 0
 153.792 418.602 153.792 418.602 164.035 426.899 c 1
 147.788 463.945 147.788 463.945 145.06 498.946 c 0
 141.688 542.222 141.688 542.222 155.52 575.647 c 0
 168.533 607.096 168.533 607.096 185.148 628.694 c 0
 201.535 649.997 201.535 649.997 220.532 665.641 c 0
 260.323 696.336 260.323 696.336 321.528 702.403 c 0
 381.37 708.334 381.37 708.334 433.502 690.414 c 0
 489.377 671.207 489.377 671.207 508.003 632.711 c 2
 514.382 619.528 l 1
 431.759 541.412 l 1
 418.519 560.669 l 2
 402.031 584.653 402.031 584.653 356.241 587.54 c 0
 310.578 590.419 310.578 590.419 285.97 564.722 c 0
 260.999 537.251 260.999 537.251 267.766 502.461 c 0
 274.532 467.67 274.532 467.67 317.379 423.902 c 2
234.824 327.319 m 1
 201.096 295.701 201.096 295.701 181.815 257.911 c 0
 160.624 216.375 160.624 216.375 173.974 176.325 c 0
 185.065 143.05 185.065 143.05 216.809 118.264 c 0
 250.357 92.0686 250.357 92.0686 283.271 82.1493 c 0
 315.813 72.3419 315.813 72.3419 337.886 74.8888 c 0
 393.483 80.2939 393.483 80.2939 436.543 116.792 c 1
 234.824 327.319 l 1
EndSplineSet
EndChar

StartChar: quotesingle
Encoding: 39 39 10
Width: 154
GlyphClass: 2
Flags: W
LayerCount: 2
Fore
SplineSet
57.359 546.906 m 2
 0 632.943 0 632.943 0 699 c 0
 0 734.003 0 734.003 24.2393 755.472 c 0
 47.0135 775.643 47.0135 775.643 75.0487 776.977 c 0
 103.986 778.355 103.986 778.355 127.516 758.185 c 0
 152 737.198 152 737.198 152 699 c 0
 152 660.49 152 660.49 131.066 616.419 c 0
 111.227 574.655 111.227 574.655 90.0711 546.095 c 2
 73.1386 523.237 l 1
 57.359 546.906 l 2
EndSplineSet
EndChar

StartChar: parenleft
Encoding: 40 40 11
Width: 268
GlyphClass: 2
Flags: W
LayerCount: 2
Fore
SplineSet
20.0797 146.216 m 0
 19 158.093 19 158.093 19 326.5 c 0
 19 493.09 19 493.09 20.0742 503.764 c 0
 27.7508 608.575 27.7508 608.575 81.8756 682.332 c 0
 136.057 756.168 136.057 756.168 220.984 793.323 c 2
 249 805.58 l 1
 249 661.679 l 1
 240.588 655.699 l 2
 165.257 602.148 165.257 602.148 153.882 502.846 c 0
 153 489.648 153 489.648 153 328 c 0
 153 164.326 153 164.326 153.903 150.027 c 0
 167.149 48.4626 167.149 48.4626 240.251 -8.1917 c 2
 248 -14.1968 l 1
 248 -167.991 l 1
 219.241 -153.98 l 2
 136.594 -113.715 136.594 -113.715 83.1261 -37.4845 c 0
 29.5486 38.9031 29.5486 38.9031 20.0797 146.216 c 0
EndSplineSet
EndChar

StartChar: parenright
Encoding: 41 41 12
Width: 295
GlyphClass: 2
Flags: W
LayerCount: 2
Fore
SplineSet
261.903 148.029 m 2
 251.388 41.8418 251.388 41.8418 197.911 -34.9312 c 0
 144.437 -111.701 144.437 -111.701 61.7594 -151.98 c 2
 33 -165.991 l 1
 33 -12.2929 l 1
 40.6262 -6.28727 l 2
 113.85 51.3765 113.85 51.3765 127.097 152.037 c 0
 128 166.326 128 166.326 128 330 c 0
 128 491.649 128 491.649 127.121 504.794 c 0
 117.012 604.045 117.012 604.045 41.2831 658.792 c 2
 33 664.779 l 1
 33 808.932 l 1
 61.2073 796.238 l 2
 146.017 758.077 146.017 758.077 199.639 684.812 c 0
 253.481 611.249 253.481 611.249 261.935 506.611 c 2
 262 505.807 l 1
 262 149.012 l 1
 261.903 148.029 l 2
EndSplineSet
EndChar

StartChar: asterisk
Encoding: 42 42 13
Width: 212
GlyphClass: 2
Flags: W
LayerCount: 2
Fore
SplineSet
182.284 658 m 1
 203.085 637.199 l 1
 183.206 603.405 l 1
 150.295 578.722 l 1
 106.618 621.334 l 1
 64.5484 579.264 l 1
 28.6932 603.168 l 1
 10.1913 638.116 l 1
 31.3185 658 l 1
 21.3845 658 l 1
 11.3173 698.269 l 1
 21.9202 736.439 l 1
 66 735.18 l 1
 66 771.396 l 1
 106 779.396 l 1
 146 771.396 l 1
 146 736.885 l 1
 188.564 735.555 l 1
 200.976 698.318 l 1
 188.881 658 l 1
 182.284 658 l 1
EndSplineSet
EndChar

StartChar: plus
Encoding: 43 43 14
Width: 495
GlyphClass: 2
Flags: W
LayerCount: 2
Fore
SplineSet
451 296.147 m 1
 315 295.147 l 1
 315 140 l 1
 185.129 140 l 1
 184.13 294.858 l 1
 44 293.857 l 1
 44 425.282 l 1
 186.579 423.288 l 1
 183.585 569 l 1
 314 569 l 1
 314 425.147 l 1
 451 426.147 l 1
 451 296.147 l 1
EndSplineSet
EndChar

StartChar: comma
Encoding: 44 44 15
Width: 154
GlyphClass: 2
Flags: W
LayerCount: 2
Fore
SplineSet
-0.0011205 69.6039 m 0
 0.494288 104.622 0.494288 104.622 24.4842 125.185 c 0
 47.4014 144.829 47.4014 144.829 76.035 145.495 c 0
 105.223 146.174 105.223 146.174 129.05 125.655 c 0
 154 104.171 154 104.171 154 66 c 0
 154 41.3931 154 41.3931 142.985 18.7507 c 0
 133.212 -1.33671 133.212 -1.33671 124.175 -13.7634 c 0
 114.432 -27.1601 114.432 -27.1601 93.5689 -42.9481 c 0
 73.596 -58.0627 73.596 -58.0627 67.9443 -60.8885 c 0
 64.7944 -62.4635 64.7944 -62.4635 49.6 -71.96 c 2
 -56.3495 -138.178 l 1
 23.6356 -42.1963 l 2
 27.5085 -37.5487 27.5085 -37.5487 32.6351 -28.5772 c 0
 38.1154 -18.9869 38.1154 -18.9869 43.1937 -7.44523 c 0
 46.5225 0.120277 46.5225 0.120277 48.8747 6.97211 c 1
 32.6633 9.01987 32.6633 9.01987 19.391 21.3441 c 0
 -0.899694 40.1854 -0.899694 40.1854 -0.0011205 69.6039 c 0
EndSplineSet
EndChar

StartChar: hyphen
Encoding: 45 45 16
Width: 470
GlyphClass: 2
Flags: W
LayerCount: 2
Fore
SplineSet
458 197 m 1
 29 197 l 1
 29 326.949 l 1
 458 328.051 l 1
 458 197 l 1
EndSplineSet
EndChar

StartChar: period
Encoding: 46 46 17
Width: 190
GlyphClass: 2
Flags: W
LayerCount: 2
Fore
SplineSet
-5 60 m 0,0,1
 -5 96.1709 -5 96.1709 19.9495 117.655 c 0,2,3
 43.3803 137.832 43.3803 137.832 72.5456 138.495 c 0,4,5
 102.043 139.165 102.043 139.165 125.804 119.364 c 0,6,7
 151 98.3675 151 98.3675 151 62 c 0,8,9
 151 24.202 151 24.202 126.514 1.75692 c 0,10,11
 102.78 -20 102.78 -20 73 -20 c 128,-1,12
 43.396 -20 43.396 -20 19.7127 1.05181 c 0,13,14
 -5 23.0187 -5 23.0187 -5 60 c 0,0,1
EndSplineSet
EndChar

StartChar: slash
Encoding: 47 47 18
Width: 500
GlyphClass: 2
Flags: W
LayerCount: 2
Fore
SplineSet
183.805 -20 m 1
 33.7243 -20 l 1
 323.231 721.729 l 1
 466.198 724.588 l 1
 183.805 -20 l 1
EndSplineSet
EndChar

StartChar: zero
Encoding: 48 48 19
Width: 569
GlyphClass: 2
Flags: W
LayerCount: 2
Fore
SplineSet
143 367 m 0
 143 240.293 143 240.293 183.377 182.48 c 0
 222.953 126.196 222.953 126.196 283.078 121.438 c 0
 341.71 116.798 341.71 116.798 380.063 167.084 c 0
 425 226.694 425 226.694 425 360 c 0
 425 494.295 425 494.295 373.203 551.545 c 0
 345.463 581.885 345.463 581.885 307.568 590.497 c 0
 270.229 598.983 270.229 598.983 234.422 582.36 c 0
 198.087 565.491 198.087 565.491 174.254 524.886 c 0
 143 471.572 143 471.572 143 367 c 0
11 361 m 0
 11 509.873 11 509.873 68.1512 598.776 c 0
 113.472 669.998 113.472 669.998 186.721 700.925 c 0
 259.971 731.853 259.971 731.853 335.585 716.078 c 0
 411.129 700.318 411.129 700.318 466.405 642.874 c 0
 558 548.085 558 548.085 558 358.167 c 1
 561.11 173.56 561.11 173.56 489.119 76.1596 c 0
 439.058 7.59743 439.058 7.59743 362.367 -13.7664 c 0
 286.184 -34.9888 286.184 -34.9888 210.154 -7.29195 c 0
 134.567 20.2437 134.567 20.2437 82.9898 89.0136 c 0
 11 185.354 11 185.354 11 361 c 0
EndSplineSet
EndChar

StartChar: one
Encoding: 49 49 20
Width: 392
GlyphClass: 2
Flags: W
LayerCount: 2
Fore
SplineSet
151.038 580 m 1
 37.166 580 l 1
 35.8326 740 l 1
 287.827 740 l 1
 289 605.104 l 1
 289.962 98 l 1
 291 98 l 1
 291 -20 l 1
 154.255 -20 l 1
 153.255 58 l 1
 152.038 58 l 1
 151.038 580 l 1
EndSplineSet
EndChar

StartChar: two
Encoding: 50 50 21
Width: 540
GlyphClass: 2
Flags: W
LayerCount: 2
Fore
SplineSet
-4.56725 -20 m 1
 323.654 407.552 l 1
 370.968 480.798 370.968 480.798 362.255 534.815 c 0
 358.175 560.113 358.175 560.113 343.848 574.629 c 0
 329.521 589.144 329.521 589.144 301.544 595.503 c 0
 272.76 602.082 272.76 602.082 235.147 586.52 c 0
 200.005 571.979 200.005 571.979 188.927 539.537 c 2
 180.683 515.395 l 1
 66.2392 588.757 l 1
 74.0135 604.746 l 2
 132.618 725.276 132.618 725.276 284.416 721.996 c 0
 393.84 719.831 393.84 719.831 449.612 660.156 c 0
 506.006 599.815 506.006 599.815 493.846 502.519 c 0
 482.21 409.426 482.21 409.426 408.096 307.127 c 1
 260.145 110.147 l 1
 514 111.073 l 1
 514 -19.9442 l 1
 116 -21.0559 l 1
 116 -20 l 1
 -4.56725 -20 l 1
EndSplineSet
EndChar

StartChar: three
Encoding: 51 51 22
Width: 510
GlyphClass: 2
Flags: W
LayerCount: 2
Fore
SplineSet
282.095 433.961 m 1
 314.447 439.827 314.447 439.827 332.202 480.073 c 0
 350.949 522.568 350.949 522.568 333.073 559.133 c 0
 317.537 590.204 317.537 590.204 272.986 600.405 c 1
 239.982 606.451 239.982 606.451 202.081 597.532 c 0
 168.049 589.523 168.049 589.523 152.365 562.077 c 2
 141.994 543.928 l 1
 30.2399 614.509 l 1
 42.8417 631.786 l 2
 110.99 725.215 110.99 725.215 263.369 721.997 c 0
 334.086 720.909 334.086 720.909 386.431 686.749 c 0
 438.997 652.444 438.997 652.444 460.883 601.378 c 0
 482.793 550.257 482.793 550.257 471.145 489.25 c 0
 461.232 437.327 461.232 437.327 424.7 391.42 c 1
 460.282 350.492 460.282 350.492 479.353 306.447 c 0
 502.095 253.924 502.095 253.924 500.995 206.04 c 0
 499.902 158.488 499.902 158.488 480.238 114.793 c 0
 460.487 70.9018 460.487 70.9018 425.302 39.5647 c 0
 390.592 8.65162 390.592 8.65162 343.208 -9.65596 c 0
 296.228 -27.8074 296.228 -27.8074 243.356 -28.0007 c 1
 128.858 -31.9241 128.858 -31.9241 19.5882 26.3529 c 2
 -2.35625 38.0567 l 1
 81.7092 136.616 l 1
 95.5401 130.085 l 2
 129.904 113.858 129.904 113.858 158.153 106.325 c 0
 185.621 99 185.621 99 203 99 c 0
 222.585 99 222.585 99 246.584 100 c 1
 283.983 100 283.983 100 311.465 118.18 c 0
 338.583 136.12 338.583 136.12 348.797 163.085 c 0
 359.897 192.39 359.897 192.39 359.008 223.937 c 0
 358.187 253.055 358.187 253.055 339.031 278.458 c 0
 320.776 302.667 320.776 302.667 289.642 314 c 1
 182.754 314 l 1
 178.235 431.517 l 1
 282.095 433.961 l 1
EndSplineSet
EndChar

StartChar: four
Encoding: 52 52 23
Width: 477
GlyphClass: 2
Flags: W
LayerCount: 2
Fore
SplineSet
299 263 m 1
 299 445.047 l 1
 177.409 263 l 1
 299 263 l 1
434 742 m 1
 434 264 l 1
 480.237 264 l 1
 478.766 139 l 1
 437 139 l 1
 437 -20 l 1
 297 -20 l 1
 297 142 l 1
 -3 142 l 1
 -3 211.206 l 1
 361.472 742 l 1
 434 742 l 1
EndSplineSet
EndChar

StartChar: five
Encoding: 53 53 24
Width: 509
GlyphClass: 2
Flags: W
LayerCount: 2
Fore
SplineSet
91.0567 720 m 1
 422.506 720 l 1
 425.506 600 l 1
 223.699 600 l 1
 221.311 442.369 l 1
 281.973 442.832 281.973 442.832 319.286 435.638 c 0
 364.907 426.843 364.907 426.843 410.175 395.588 c 1
 449.247 369.913 449.247 369.913 471.647 327.912 c 0
 493.525 286.891 493.525 286.891 497.908 241.419 c 0
 502.293 195.923 502.293 195.923 488.106 150.086 c 0
 473.996 104.501 473.996 104.501 444.662 67.5624 c 0
 414.622 29.7345 414.622 29.7345 363.159 6.73983 c 0
 312.724 -15.7953 312.724 -15.7953 249.522 -16.0002 c 1
 188.529 -18.9937 188.529 -18.9937 126.294 3.15795 c 0
 64.864 25.0227 64.864 25.0227 18.7333 56.4755 c 2
 1.17946 68.444 l 1
 72.9642 161.166 l 1
 88.1404 152.239 l 2
 137.483 123.214 137.483 123.214 168.172 112.354 c 0
 197.434 102 197.434 102 244.792 102 c 0
 285.921 102.857 285.921 102.857 315.174 125.75 c 0
 345.001 149.093 345.001 149.093 355.579 179.98 c 0
 366.347 211.423 366.347 211.423 359.869 244.676 c 0
 353.826 275.696 353.826 275.696 331.529 294.363 c 1
 287.513 328.16 287.513 328.16 226.736 331.979 c 1
 89.9411 327.303 l 1
 91.0567 720 l 1
EndSplineSet
EndChar

StartChar: six
Encoding: 54 54 25
Width: 590
GlyphClass: 2
Flags: W
LayerCount: 2
Fore
SplineSet
28.2242 252.761 m 1
 24.034 271.771 24.034 271.771 22.5178 307.656 c 0
 21.0055 343.449 21.0055 343.449 20.5019 380.226 c 0
 19.9669 419.279 19.9669 419.279 32.5741 470.757 c 0
 45.1724 522.2 45.1724 522.2 70.3398 569.387 c 0
 106.854 638.121 106.854 638.121 173.912 679.968 c 0
 241.268 722 241.268 722 315.883 722 c 0
 407.471 723.062 407.471 723.062 455.348 694.115 c 2
 471.058 684.616 l 1
 413.59 568.126 l 1
 393.858 587.858 l 2
 388.71 593.006 388.71 593.006 366.981 598.64 c 0
 343.657 604.687 343.657 604.687 306.291 600.131 c 0
 265.439 595.692 265.439 595.692 235.236 573.805 c 0
 204.606 551.609 204.606 551.609 187.791 518.864 c 0
 169.997 484.21 169.997 484.21 162.052 447.293 c 0
 156.949 423.578 156.949 423.578 155.022 398.107 c 1
 180.879 419.436 180.879 419.436 208.393 432.553 c 0
 254.776 454.665 254.776 454.665 292.012 457.445 c 0
 328.453 460.164 328.453 460.164 367.339 451.524 c 0
 405.372 443.072 405.372 443.072 423.776 434.707 c 0
 441.312 426.737 441.312 426.737 457.108 417.259 c 0
 497.143 394.383 497.143 394.383 524.352 340.518 c 0
 551 287.762 551 287.762 551 224 c 0
 551 137.137 551 137.137 504.729 77.6465 c 0
 429.731 -16.9161 429.731 -16.9161 305.087 -18 c 1
 166.383 -18 166.383 -18 91.5551 92.6153 c 0
 73.2434 118.467 73.2434 118.467 51.8467 173.785 c 0
 30.9257 227.873 30.9257 227.873 28.2242 252.761 c 1
174 226 m 0
 174 188.212 174 188.212 192.481 161.331 c 0
 211.247 134.035 211.247 134.035 238.016 122.323 c 0
 266.056 110.056 266.056 110.056 299.233 110.498 c 0
 332.348 110.94 332.348 110.94 360.891 124.552 c 0
 388.314 137.631 388.314 137.631 406.743 165.918 c 0
 425 193.941 425 193.941 425 233 c 0
 425 274 425 274 400.517 299.707 c 0
 374.846 326.661 374.846 326.661 335.612 338.447 c 1
 314.338 341.635 314.338 341.635 302.685 339.755 c 0
 288.408 337.452 288.408 337.452 265.74 330.841 c 0
 232.47 320.603 232.47 320.603 202.753 285.564 c 0
 174 251.66 174 251.66 174 226 c 0
EndSplineSet
EndChar

StartChar: seven
Encoding: 55 55 26
Width: 481
GlyphClass: 2
Flags: W
LayerCount: 2
Fore
SplineSet
52 711.055 m 1
 458 709.945 l 1
 458 609.246 l 1
 460.457 601.875 l 1
 177.88 -20 l 1
 10.4086 -20 l 1
 293.409 578 l 1
 52 578 l 1
 52 711.055 l 1
EndSplineSet
EndChar

StartChar: eight
Encoding: 56 56 27
Width: 555
GlyphClass: 2
Flags: W
LayerCount: 2
Fore
SplineSet
46 505 m 0
 46 556.268 46 556.268 66.7415 602.663 c 0
 87.7895 649.743 87.7895 649.743 122.787 676.838 c 0
 184.154 723.958 184.154 723.958 270.374 724.5 c 0
 356.414 725.041 356.414 725.041 415.621 682.278 c 0
 453.72 655.385 453.72 655.385 477.469 606.781 c 0
 501 558.624 501 558.624 501 505 c 2
 501 504.334 l 1
 497.91 457.989 497.91 457.989 448.936 387.601 c 1
 540 317.559 540 317.559 540 207 c 0
 540 114.123 540 114.123 496.729 58.6464 c 0
 459.475 11.5315 459.475 11.5315 400.692 -12.9615 c 0
 343.001 -37 343.001 -37 279 -37 c 0
 209.619 -37 209.619 -37 149.139 -9.16859 c 0
 87.638 19.1328 87.638 19.1328 51.5192 71.6694 c 0
 15 124.788 15 124.788 15 206 c 0
 15 310.776 15 310.776 100.906 381.858 c 1
 48.9915 444.672 48.9915 444.672 46.025 504.001 c 1
 46 505 l 0
156 212 m 0
 156 174.016 156 174.016 174.18 146.535 c 0
 192.503 118.839 192.503 118.839 219.255 106.717 c 0
 247.447 93.9424 247.447 93.9424 280.767 93.4982 c 0
 313.868 93.057 313.868 93.057 342.351 105.765 c 0
 369.425 117.844 369.425 117.844 387.202 145.354 c 0
 405 172.899 405 172.899 405 212 c 0
 405 253.673 405 253.673 382.232 280.581 c 0
 359.018 308.017 359.018 308.017 321.609 318.464 c 1
 275.779 326.376 275.779 326.376 236.166 316.677 c 1
 200.181 306.145 200.181 306.145 177.904 279.244 c 0
 156 252.794 156 252.794 156 212 c 0
299.395 438.701 m 1
 330.665 446.589 330.665 446.589 349.414 468.13 c 0
 368 489.485 368 489.485 368 525 c 0
 368 551.633 368 551.633 354.68 570.44 c 0
 340.969 589.797 340.969 589.797 320.207 598.581 c 0
 298.105 607.932 298.105 607.932 272.839 607.503 c 0
 247.289 607.069 247.289 607.069 225.422 597.636 c 0
 204.94 588.8 204.94 588.8 190.66 569.217 c 0
 177 550.483 177 550.483 177 524 c 0
 177 487.604 177 487.604 195.948 466.287 c 0
 215.032 444.818 215.032 444.818 246.105 437.787 c 1
 271.8 435.341 271.8 435.341 299.395 438.701 c 1
EndSplineSet
EndChar

StartChar: nine
Encoding: 57 57 28
Width: 515
GlyphClass: 2
Flags: W
LayerCount: 2
Fore
SplineSet
152 501 m 0
 152 456.883 152 456.883 174.621 432.646 c 0
 197.545 408.085 197.545 408.085 227.15 404.884 c 0
 259.442 401.393 259.442 401.393 292.505 413.737 c 0
 324.206 425.572 324.206 425.572 339.644 447.51 c 0
 340.213 448.279 l 2
 357.131 470.03 357.131 470.03 360.974 508.613 c 1
 359.712 540.326 359.712 540.326 344.906 562.336 c 0
 329.792 584.803 329.792 584.803 307.402 594 c 0
 283.507 603.814 283.507 603.814 255.936 602.522 c 0
 227.933 601.209 227.933 601.209 204.048 589.919 c 0
 181.806 579.405 181.806 579.405 166.91 555.82 c 0
 152 532.214 152 532.214 152 501 c 0
19 495 m 0
 19 569.881 19 569.881 54.6818 625.324 c 0
 90.3676 680.772 90.3676 680.772 145.224 705.707 c 0
 198.666 730 198.666 730 260 730 c 0
 321.413 730 321.413 730 373.917 705.643 c 0
 427.818 680.637 427.818 680.637 462.469 625.085 c 0
 497.085 569.591 497.085 569.591 495.998 495.706 c 2
 495.99 495.201 l 1
 489.763 399.727 489.763 399.727 435.216 254.949 c 0
 380.888 110.751 380.888 110.751 298.577 -11.1895 c 2
 292.574 -20.0832 l 1
 113.354 -18.6831 l 1
 138.213 13.2788 l 2
 187.109 76.1452 187.109 76.1452 208 104 c 0
 228.319 131.092 228.319 131.092 260.241 185.606 c 0
 290.312 236.959 290.312 236.959 309.486 286.347 c 1
 277.655 276 277.655 276 238 276 c 0
 182.472 276 182.472 276 134.385 298.95 c 0
 85.2679 322.393 85.2679 322.393 52.1941 373.657 c 0
 19 425.109 19 425.109 19 495 c 0
EndSplineSet
EndChar

StartChar: colon
Encoding: 58 58 29
Width: 161
GlyphClass: 2
Flags: W
LayerCount: 2
Fore
SplineSet
2 409 m 0
 2 443.532 2 443.532 27.904 464.535 c 0
 51.7084 483.836 51.7084 483.836 80.035 484.495 c 0
 108.698 485.161 108.698 485.161 132.838 466.241 c 0
 159 445.735 159 445.735 159 410 c 0
 159 373.665 159 373.665 133.345 352.17 c 0
 109.271 332 109.271 332 80.5 332 c 0
 51.9111 332 51.9111 332 27.904 351.465 c 0
 2 372.468 2 372.468 2 409 c 0
1 75 m 0
 1 111.171 1 111.171 25.9495 132.655 c 0
 49.3803 152.832 49.3803 152.832 78.5456 153.495 c 0
 108.043 154.165 108.043 154.165 131.804 134.364 c 0
 157 113.367 157 113.367 157 77 c 0
 157 39.202 157 39.202 132.514 16.7569 c 0
 108.78 -5 108.78 -5 79 -5 c 0
 49.396 -5 49.396 -5 25.7127 16.0518 c 0
 1 38.0187 1 38.0187 1 75 c 0
EndSplineSet
EndChar

StartChar: semicolon
Encoding: 59 59 30
Width: 154
GlyphClass: 2
Flags: W
LayerCount: 2
Fore
SplineSet
-3 414 m 0
 -3 449.367 -3 449.367 22.1963 470.364 c 0
 45.7585 490 45.7585 490 75 490 c 0
 103.863 490 103.863 490 127.279 471.787 c 0
 153 451.781 153 451.781 153 416 c 0
 153 379.829 153 379.829 128.05 358.345 c 0
 104.425 338 104.425 338 75 338 c 0
 45.7585 338 45.7585 338 22.1963 357.636 c 0
 -3 378.633 -3 378.633 -3 414 c 0
1.99885 92.5962 m 0
 2.51318 126.613 2.51318 126.613 26.9495 147.655 c 0
 50.3756 167.828 50.3756 167.828 79.035 168.495 c 0
 108.567 169.182 108.567 169.182 131.995 147.761 c 0
 156 125.813 156 125.813 156 88 c 0
 156 64.73 156 64.73 145.756 41.8327 c 0
 136.311 20.7198 136.311 20.7198 126.909 8.37914 c 0
 117.172 -4.40067 117.172 -4.40067 95.864 -20.1011 c 0
 76.7461 -34.188 76.7461 -34.188 73.1248 -36.7747 c 0
 68.5379 -40.051 68.5379 -40.051 50.3578 -49.6758 c 2
 -67.1925 -111.908 l 1
 26.8579 -17.8579 l 2
 29.8213 -14.8944 29.8213 -14.8944 34.4421 -6.42296 c 0
 40.1087 3.96582 40.1087 3.96582 45.3187 15.3331 c 0
 48.7033 22.7177 48.7033 22.7177 51.2805 29.5215 c 1
 35.3679 32.2081 35.3679 32.2081 22.4412 43.3518 c 0
 1.10436 61.7456 1.10436 61.7456 1.99885 92.5962 c 0
EndSplineSet
EndChar

StartChar: less
Encoding: 60 60 31
Width: 618
GlyphClass: 2
Flags: W
LayerCount: 2
Fore
SplineSet
555 628.177 m 1
 555 483.617 l 1
 327.534 370.337 l 1
 550.117 250.903 l 1
 548.681 103.02 l 1
 149.411 313.446 l 1
 39.6333 375.557 l 1
 133.286 420.003 l 1
 555 628.177 l 1
EndSplineSet
EndChar

StartChar: equal
Encoding: 61 61 32
Width: 665
GlyphClass: 2
Flags: W
LayerCount: 2
Fore
SplineSet
94.4504 309.044 m 1
 576.459 307.954 l 1
 573.55 179.956 l 1
 91.5413 181.046 l 1
 94.4504 309.044 l 1
89.5392 547.046 m 1
 571.552 545.956 l 1
 574.461 417.954 l 1
 92.4484 419.044 l 1
 89.5392 547.046 l 1
EndSplineSet
EndChar

StartChar: greater
Encoding: 62 62 33
Width: 618
GlyphClass: 2
Flags: W
LayerCount: 2
Fore
SplineSet
63 628.177 m 1
 484.713 420.003 l 1
 578.367 375.557 l 1
 468.589 313.446 l 1
 69.3193 103.02 l 1
 67.8835 250.903 l 1
 290.466 370.337 l 1
 63 483.617 l 1
 63 628.177 l 1
EndSplineSet
EndChar

StartChar: question
Encoding: 63 63 34
Width: 548
GlyphClass: 2
Flags: W
LayerCount: 2
Fore
SplineSet
248 652 m 0
 221.134 652 221.134 652 202.929 644.139 c 0
 185.205 636.486 185.205 636.486 176.725 626.531 c 0
 164.916 612.668 164.916 612.668 149.591 596.321 c 2
 131.596 577.127 l 1
 68.2265 681.234 l 1
 78.0518 692.287 l 2
 113.039 731.649 113.039 731.649 157.177 750.407 c 0
 200.929 769 200.929 769 261 769 c 0
 357.943 769 357.943 769 416.22 714.052 c 0
 475 658.63 475 658.63 475 568 c 0
 475 521.159 475 521.159 454.786 481.853 c 0
 435.411 444.18 435.411 444.18 392.389 400.108 c 2
 350.576 356.304 l 2
 316.715 319.698 316.715 319.698 311.565 303.455 c 0
 306 285.906 306 285.906 306 237 c 2
 306 235.828 l 1
 301.89 200.896 l 1
 166.352 193.909 l 1
 168 248.303 l 1
 168 310.593 168 310.593 186.004 347.725 c 0
 203.417 383.64 203.417 383.64 243.531 424.809 c 1
 286.619 470.903 l 2
 295.063 479.348 295.063 479.348 304.268 488.04 c 0
 312.081 495.419 312.081 495.419 319.091 504.621 c 0
 326.781 514.713 326.781 514.713 332.994 523.794 c 0
 337.912 530.982 337.912 530.982 341.026 540.325 c 0
 343.728 548.43 343.728 548.43 343.069 556.339 c 2
 343.022 556.906 l 1
 341.687 607.637 341.687 607.637 319.309 629.818 c 0
 296.931 652 296.931 652 248 652 c 0
158 60 m 0
 158 96.1709 158 96.1709 182.95 117.655 c 0
 206.38 137.832 206.38 137.832 235.546 138.495 c 0
 265.043 139.165 265.043 139.165 288.804 119.364 c 0
 314 98.3675 314 98.3675 314 62 c 0
 314 24.202 314 24.202 289.514 1.75692 c 0
 265.78 -20 265.78 -20 236 -20 c 0
 206.396 -20 206.396 -20 182.713 1.05181 c 0
 158 23.0188 158 23.0188 158 60 c 0
EndSplineSet
EndChar

StartChar: at
Encoding: 64 64 35
Width: 905
GlyphClass: 2
Flags: W
LayerCount: 2
Fore
SplineSet
628.391 152.439 m 1
 604.459 154.576 604.459 154.576 582.87 162.814 c 0
 550.356 175.221 550.356 175.221 530.86 198.793 c 1
 496.903 180.626 496.903 180.626 457.034 177.559 c 0
 406.893 173.702 406.893 173.702 362.572 191.43 c 0
 316.89 209.703 316.89 209.703 285.954 255.265 c 0
 255.109 300.692 255.109 300.692 254.004 362.593 c 0
 252.908 410.834 252.908 410.834 269.577 450.284 c 0
 286.499 490.333 286.499 490.333 315.318 513.965 c 0
 343.017 536.679 343.017 536.679 377.312 548.849 c 0
 411.993 561.155 411.993 561.155 449.395 559.48 c 0
 484.398 557.912 484.398 557.912 516 544.643 c 1
 516 555 l 1
 630.479 555 l 1
 628.949 533.575 l 2
 626.946 505.525 626.946 505.525 623.944 465.504 c 0
 620.945 425.502 620.945 425.502 619.456 403.17 c 0
 618.019 381.619 618.019 381.619 618.992 348.079 c 0
 619.919 316.096 619.919 316.096 624.528 281.802 c 1
 630.475 267.589 630.475 267.589 654.201 263.742 c 0
 681.097 259.381 681.097 259.381 697.858 276.142 c 0
 719.994 298.278 719.994 298.278 724.971 310.528 c 0
 730 322.906 730 322.906 730 367.078 c 0
 730.932 486.401 730.932 486.401 656.195 556.527 c 0
 626.549 585.276 626.549 585.276 573.677 601.367 c 0
 519.02 618 519.02 618 465 618 c 0
 401.85 618 401.85 618 340.428 593.43 c 0
 280.492 569.455 280.492 569.455 249.852 529.805 c 0
 195 458.22 195 458.22 195 350 c 0
 195 313.891 195 313.891 211.541 273 c 0
 228.415 231.282 228.415 231.282 259.022 193.612 c 0
 288.928 156.804 288.928 156.804 336.787 131.713 c 0
 384.084 106.917 384.084 106.917 438.439 105.995 c 0
 474.438 105.023 474.438 105.023 503.339 107.431 c 0
 531.422 109.771 531.422 109.771 549.071 114.749 c 0
 567.456 119.934 567.456 119.934 583.385 126.494 c 0
 598.555 132.74 598.555 132.74 608.906 139.641 c 0
 617.914 145.646 617.914 145.646 628.391 152.439 c 1
661.817 152.434 m 1
 726.594 86.3357 l 1
 705.701 73.1036 l 2
 675.126 53.74 675.126 53.74 657.042 43.9229 c 0
 638.367 33.785 638.367 33.785 605.62 21.3102 c 0
 571.914 8.47002 571.914 8.47002 531.076 3.16656 c 0
 491.292 -2 491.292 -2 438 -2 c 0
 369.512 -2 369.512 -2 309.231 19.6801 c 0
 248.764 41.4275 248.764 41.4275 206.968 77.3286 c 0
 165.863 112.637 165.863 112.637 135.829 157.951 c 0
 105.603 203.555 105.603 203.555 91.7538 252.561 c 0
 78 301.228 78 301.228 78 350 c 0
 78 496.228 78 496.228 166.636 602.804 c 0
 214.769 660.566 214.769 660.566 298.291 695.455 c 0
 380.992 730 380.992 730 464 730 c 0
 540.013 730 540.013 730 610.901 708.109 c 0
 682.864 685.887 682.864 685.887 728.154 647.067 c 1
 785.94 595.703 785.94 595.703 813.681 523.144 c 0
 841 451.687 841 451.687 841 371 c 0
 841 310.257 841 310.257 826.645 273.264 c 0
 811.928 235.338 811.928 235.338 767.192 194.965 c 1
 728.64 162.084 728.64 162.084 677.009 154.228 c 0
 669.387 153.068 669.387 153.068 661.817 152.434 c 1
367 366 m 0
 367 338.907 367 338.907 380.291 318.365 c 0
 393.231 298.368 393.231 298.368 412.104 291.196 c 0
 433.298 283.142 433.298 283.142 455.231 283.985 c 0
 474.994 284.745 474.994 284.745 492 297.5 c 0
 507.941 309.456 507.941 309.456 514.454 331.364 c 1
 515.94 341.529 515.94 341.529 515.503 368.172 c 0
 515.074 394.288 515.074 394.288 514.265 405.127 c 1
 506.669 428.263 506.669 428.263 490.661 441.665 c 0
 474.567 455.139 474.567 455.139 455.615 455.504 c 0
 433.845 455.922 433.845 455.922 412.745 447.06 c 0
 393.613 439.025 393.613 439.025 380.478 417.929 c 0
 367 396.282 367 396.282 367 366 c 0
EndSplineSet
EndChar

StartChar: A
Encoding: 65 65 36
Width: 674
GlyphClass: 2
Flags: W
LayerCount: 2
Fore
SplineSet
328.005 782.365 m 1,0,-1
 388.278 647.118 l 1,1,-1
 683.751 -19 l 1,2,-1
 545.33 -19 l 1,3,-1
 459.33 163 l 1,4,-1
 209.99 163 l 1,5,-1
 128.99 -19 l 1,6,-1
 -9.21539 -19 l 1,7,-1
 280.508 663.622 l 1,8,-1
 328.005 782.365 l 1,0,-1
403.926 286 m 1,9,-1
 330.646 460.744 l 1,10,-1
 262.298 286 l 1,11,-1
 403.926 286 l 1,9,-1
EndSplineSet
EndChar

StartChar: B
Encoding: 66 66 37
Width: 517
GlyphClass: 2
Flags: W
LayerCount: 2
Fore
SplineSet
24 708 m 1
 250.055 708 l 1
 252.978 706.052 l 1
 299.246 705.716 299.246 705.716 336.744 687.487 c 0
 377.208 667.817 377.208 667.817 400.637 635.815 c 0
 423.515 604.566 423.515 604.566 432.95 565.157 c 0
 442.394 525.712 442.394 525.712 436.228 488.712 c 0
 429.936 450.96 429.936 450.96 405.566 418.089 c 0
 395.398 404.373 395.398 404.373 382.278 393.097 c 1
 406.137 383.753 406.137 383.753 425.718 366.51 c 0
 463.24 333.467 463.24 333.467 479.452 285.391 c 0
 495.233 238.589 495.233 238.589 491.45 185.089 c 0
 487.663 131.521 487.663 131.521 464.303 85.8866 c 0
 440.149 38.7009 440.149 38.7009 389.124 8.75168 c 0
 339.018 -20.6581 339.018 -20.6581 271.685 -19.0312 c 1
 261.998 -20 l 1
 73 -20 l 2
 73 -19.4123 73 -19.4123 44.4081 -19.9958 c 2
 24 -20.4123 l 1
 24 708 l 1
151 596 m 1
 151 427 l 1
 241.571 427 l 1
 270.284 431.452 270.284 431.452 288.014 448.797 c 0
 306.104 466.493 306.104 466.493 309.181 489.187 c 0
 312.631 514.629 312.631 514.629 305.72 539.681 c 0
 299.5 562.228 299.5 562.228 278.806 578.148 c 0
 257.961 594.182 257.961 594.182 227.46 595.007 c 2
 208 595.533 l 2
 208 596 208 596 151 596 c 1
151 314 m 1
 151 115 l 1
 283.793 115 l 1
 315.018 116.062 315.018 116.062 334.149 134.428 c 0
 353.948 153.435 353.948 153.435 357.129 181.271 c 0
 360.722 212.702 360.722 212.702 353.081 243.716 c 0
 346.04 272.29 346.04 272.29 323.56 292.689 c 0
 302.049 312.208 302.049 312.208 272.46 313.007 c 2
 253 313.533 l 2
 253 314 253 314 151 314 c 1
EndSplineSet
EndChar

StartChar: C
Encoding: 67 67 38
Width: 694
GlyphClass: 2
Flags: W
LayerCount: 2
Fore
SplineSet
430.785 721.985 m 0,0,1
 522.694 718.853 522.694 718.853 587.485 689.111 c 0,2,3
 612.02 677.378 612.02 677.378 622.794 670.006 c 0,4,5
 633.192 662.892 633.192 662.892 655.016 644.185 c 2,6,-1
 672.427 629.261 l 1,7,-1
 568.313 536.878 l 1,8,-1
 555.213 553.721 l 2,9,10
 544.951 566.915 544.951 566.915 503.736 580.506 c 0,11,12
 459.5 595.094 459.5 595.094 428.337 596.011 c 0,13,14
 353.356 598.786 353.356 598.786 282.05 554.509 c 128,-1,15
 210.598 510.141 210.598 510.141 177.128 438.552 c 0,16,17
 132.69 343.198 132.69 343.198 167.203 252.085 c 0,18,19
 201.807 160.732 201.807 160.732 298.448 116.128 c 0,20,21
 345.64 93.9202 345.64 93.9202 397.357 92.9968 c 0,22,23
 449.65 92.0631 449.65 92.0631 495.665 108.796 c 0,24,25
 542.44 125.805 542.44 125.805 586.112 158.084 c 2,26,-1
 600.753 168.905 l 1,27,-1
 686.142 73.5544 l 1,28,-1
 671.453 60.2012 l 2,29,30
 624.573 17.5823 624.573 17.5823 559.921 -6.26423 c 0,31,32
 496.15 -29.786 496.15 -29.786 435.205 -33.4637 c 0,33,34
 375.152 -37.0875 375.152 -37.0875 321.618 -29.2912 c 0,35,36
 266.811 -21.3097 266.811 -21.3097 230.822 -2.76959 c 0,37,38
 84.8199 72.8567 84.8199 72.8567 36.1701 208.759 c 0,39,40
 -12.6061 345.016 -12.6061 345.016 56.8763 493.458 c 0,41,42
 108.455 603.983 108.455 603.983 210.671 665.626 c 128,-1,43
 312.858 727.252 312.858 727.252 430.785 721.985 c 0,0,1
EndSplineSet
EndChar

StartChar: D
Encoding: 68 68 39
Width: 611
GlyphClass: 2
Flags: W
LayerCount: 2
Fore
SplineSet
143.976 711 m 1
 164.651 712.99 164.651 712.99 202.033 711.993 c 0
 239.246 711 239.246 711 255.171 711 c 0
 316.408 709.946 316.408 709.946 368.825 692.474 c 0
 421.816 674.81 421.816 674.81 457.665 645.479 c 0
 492.3 617.141 492.3 617.141 513.617 590.494 c 0
 535.034 563.722 535.034 563.722 549.08 534.551 c 0
 583.663 460.148 583.663 460.148 589.942 378.024 c 0
 596.22 295.904 596.22 295.904 574.705 221.916 c 0
 552.932 147.044 552.932 147.044 498.398 86.1565 c 0
 443.444 24.7998 443.444 24.7998 363.438 -2.9358 c 0
 340.928 -10.4392 340.928 -10.4392 288.476 -19.6957 c 2
 286.751 -20 l 1
 285 -20 l 2
 269.173 -20 269.173 -20 240.345 -20.497 c 0
 211.172 -21 211.172 -21 194 -21 c 0
 176.743 -21 176.743 -21 137.744 -20 c 1
 19 -20 l 1
 19 711 l 1
 143.976 711 l 1
435.431 468.571 m 0
 411.69 527.009 411.69 527.009 363.02 561.123 c 0
 314.688 595 314.688 595 246 595 c 0
 240.844 595 240.844 595 202.737 595.5 c 0
 176.135 595.852 176.135 595.852 151.111 595.452 c 1
 153.888 102.922 l 1
 179.471 102.718 179.471 102.718 203.115 101.991 c 0
 233.955 101.042 233.955 101.042 272.809 106.318 c 0
 310.654 111.458 310.654 111.458 341.38 124.493 c 0
 385.393 142.098 385.393 142.098 412.426 186.415 c 0
 440.729 232.814 440.729 232.814 447.674 285.132 c 0
 454.898 339.553 454.898 339.553 451.059 389.466 c 0
 447.29 438.465 447.29 438.465 435.431 468.571 c 0
EndSplineSet
EndChar

StartChar: E
Encoding: 69 69 40
Width: 483
GlyphClass: 2
Flags: W
LayerCount: 2
Fore
SplineSet
34 713 m 1,0,-1
 440 713 l 1,1,-1
 440 588 l 1,2,-1
 166 588 l 1,3,-1
 166 432 l 1,4,-1
 362 432 l 1,5,-1
 362 309 l 1,6,-1
 166 309 l 1,7,-1
 166 102 l 1,8,-1
 449 102 l 1,9,-1
 449 -20 l 1,10,-1
 34 -20 l 1,11,-1
 34 713 l 1,0,-1
EndSplineSet
EndChar

StartChar: F
Encoding: 70 70 41
Width: 469
GlyphClass: 2
Flags: W
LayerCount: 2
Fore
SplineSet
38 711 m 1
 431 711 l 1
 431 589 l 1
 171 589 l 1
 171 432 l 1
 366 432 l 1
 366 309 l 1
 171 309 l 1
 171 -20 l 1
 38 -20 l 1
 38 711 l 1
EndSplineSet
EndChar

StartChar: G
Encoding: 71 71 42
Width: 704
GlyphClass: 2
Flags: W
LayerCount: 2
Fore
SplineSet
693.081 385.089 m 1,0,-1
 692 115.965 l 2,1,2
 692 89.1294 692 89.1294 665.65 74.5345 c 1,3,4
 619.179 32.0872 619.179 32.0872 556.056 8.28605 c 0,5,6
 492.379 -15.7241 492.379 -15.7241 430.521 -20.4421 c 0,7,8
 369.407 -25.1033 369.407 -25.1033 315.806 -17.8178 c 0,9,10
 260.898 -10.3545 260.898 -10.3545 224.755 8.26479 c 0,11,12
 129.424 58.5497 129.424 58.5497 75.1575 135.471 c 0,13,14
 20.6071 212.795 20.6071 212.795 12.5942 295.061 c 0,15,16
 4.69384 376.172 4.69384 376.172 30.9544 458.104 c 128,-1,17
 57.1762 539.916 57.1762 539.916 111.271 603.464 c 0,18,19
 165.637 667.331 165.637 667.331 248.163 705.179 c 0,20,21
 330.952 743.148 330.952 743.148 424.681 739.988 c 0,22,23
 516.835 736.848 516.835 736.848 581.599 706.057 c 0,24,25
 606.02 694.378 606.02 694.378 616.794 687.006 c 0,26,27
 627.192 679.892 627.192 679.892 649.016 661.185 c 2,28,-1
 666.291 646.378 l 1,29,-1
 561.406 551.834 l 1,30,-1
 548.494 570.706 l 2,31,32
 539.393 584.007 539.393 584.007 498.477 596.928 c 0,33,34
 453.349 611.18 453.349 611.18 422.04 613.022 c 0,35,36
 347.411 615.784 347.411 615.784 276.13 571.059 c 0,37,38
 204.621 526.191 204.621 526.191 171.154 454.606 c 0,39,40
 126.653 357.258 126.653 357.258 161.215 265.553 c 0,41,42
 195.889 173.553 195.889 173.553 292.583 127.065 c 0,43,44
 337.638 105.917 337.638 105.917 386.874 104.997 c 0,45,46
 436.744 104.064 436.744 104.064 481.323 119.853 c 0,47,48
 522.049 134.276 522.049 134.276 561.3 159.858 c 1,49,-1
 564.425 270 l 1,50,-1
 426.728 270 l 1,51,-1
 428.267 383.913 l 1,52,-1
 693.081 385.089 l 1,0,-1
EndSplineSet
EndChar

StartChar: H
Encoding: 72 72 43
Width: 630
GlyphClass: 2
Flags: W
LayerCount: 2
Fore
SplineSet
461 714 m 1
 592 714 l 1
 592 -20 l 1
 461 -20 l 1
 461 291.061 l 1
 171 291.939 l 1
 171 -20 l 1
 38 -20 l 1
 38 710 l 1
 169.728 710 l 1
 171 617.137 l 1
 171 414 l 1
 461 414 l 1
 461 714 l 1
EndSplineSet
EndChar

StartChar: I
Encoding: 73 73 44
Width: 207
GlyphClass: 2
Flags: W
LayerCount: 2
Fore
SplineSet
37.9712 716 m 1,0,-1
 167.971 716 l 1,1,-1
 169.029 -19 l 1,2,-1
 39.0288 -19 l 1,3,-1
 37.9712 716 l 1,0,-1
EndSplineSet
EndChar

StartChar: J
Encoding: 74 74 45
Width: 396
GlyphClass: 2
Flags: W
LayerCount: 2
Fore
SplineSet
74.7098 88.2136 m 2,0,1
 105.917 65.6754 105.917 65.6754 139.511 63.9744 c 0,2,3
 172.779 62.29 172.779 62.29 198.973 78.5053 c 128,-1,4
 225.307 94.8072 225.307 94.8072 242.793 133.276 c 0,5,6
 260.926 173.169 260.926 173.169 260.003 227.682 c 2,7,-1
 252.701 720 l 1,8,-1
 383.627 720 l 1,9,-1
 392.995 222.474 l 2,10,11
 395.114 148.296 395.114 148.296 370.476 88.8432 c 0,12,13
 345.488 28.5466 345.488 28.5466 302.919 -5.17679 c 0,14,15
 261.367 -38.0945 261.367 -38.0945 211.632 -52.6906 c 0,16,17
 161.351 -67.4468 161.351 -67.4468 108.444 -59.2651 c 0,18,19
 55.997 -51.1547 55.997 -51.1547 11.5879 -24.0759 c 2,20,-1
 -4.35124 -14.357 l 1,21,-1
 55.9232 101.782 l 1,22,-1
 74.7098 88.2136 l 2,0,1
EndSplineSet
EndChar

StartChar: K
Encoding: 75 75 46
Width: 636
GlyphClass: 2
Flags: W
LayerCount: 2
Fore
SplineSet
404.658 706 m 1
 570.514 706 l 1
 275.804 362.526 l 1
 632.864 -22 l 1
 463.202 -22 l 1
 162 306.584 l 1
 162 -22 l 1
 29 -22 l 1
 29 706 l 1
 162 706 l 1
 162 416.059 l 1
 404.658 706 l 1
EndSplineSet
EndChar

StartChar: L
Encoding: 76 76 47
Width: 474
GlyphClass: 2
Flags: W
LayerCount: 2
Fore
SplineSet
162 709.786 m 1
 162 105 l 1
 445 105 l 1
 445 -18 l 1
 29 -18 l 1
 29 711.216 l 1
 162 709.786 l 1
EndSplineSet
EndChar

StartChar: M
Encoding: 77 77 48
Width: 734
GlyphClass: 2
Flags: W
LayerCount: 2
Fore
SplineSet
368.97 363.8 m 1
 671.246 776.38 l 1
 709.992 -24 l 1
 584.3 -24 l 1
 555.625 402.418 l 1
 369.066 157.042 l 1
 178.397 405.742 l 1
 149.7 -21 l 1
 24.0098 -21 l 1
 62.7431 780.226 l 1
 368.97 363.8 l 1
EndSplineSet
EndChar

StartChar: N
Encoding: 78 78 49
Width: 646
GlyphClass: 2
Flags: W
LayerCount: 2
Fore
SplineSet
165 414.662 m 1
 165 -17 l 1
 38 -17 l 1
 38 752.241 l 1
 482.679 256.599 l 1
 479.878 716 l 1
 608 716 l 1
 608 -80.3379 l 1
 165 414.662 l 1
EndSplineSet
EndChar

StartChar: O
Encoding: 79 79 50
Width: 752
GlyphClass: 2
Flags: W
LayerCount: 2
Fore
SplineSet
354.149 607 m 0,0,1
 300.766 607 300.766 607 258.521 585.65 c 128,-1,2
 216.333 564.329 216.333 564.329 191.175 529.737 c 0,3,4
 165.144 493.944 165.144 493.944 151.124 448.146 c 128,-1,5
 137.059 402.198 137.059 402.198 137.996 354.392 c 128,-1,6
 138.935 306.528 138.935 306.528 154.916 259.996 c 0,7,8
 170.809 213.718 170.809 213.718 198.698 178.393 c 0,9,10
 225.853 143.996 225.853 143.996 270.221 122.498 c 128,-1,11
 314.591 101 314.591 101 370 101 c 0,12,13
 426.613 101 426.613 101 473.63 122.664 c 0,14,15
 520.441 144.234 520.441 144.234 549.021 179.165 c 0,16,17
 578.248 214.886 578.248 214.886 594.084 260.996 c 0,18,19
 610.033 307.431 610.033 307.431 610.501 355.694 c 0,20,21
 610.965 403.534 610.965 403.534 594.227 449.104 c 128,-1,22
 577.445 494.792 577.445 494.792 547.217 530.599 c 0,23,24
 517.784 565.465 517.784 565.465 468.163 586.6 c 0,25,26
 418.057 607.94 418.057 607.94 354.149 607 c 0,0,1
361 727 m 0,27,28
 454.145 727 454.145 727 529.456 694.35 c 0,29,30
 605.057 661.573 605.057 661.573 652.014 608.213 c 0,31,32
 698.488 555.402 698.488 555.402 723.274 487.894 c 128,-1,33
 748.026 420.481 748.026 420.481 747.499 350.35 c 128,-1,34
 746.974 280.353 746.974 280.353 722.257 213.559 c 128,-1,35
 697.475 146.589 697.475 146.589 651.523 94.2977 c 0,36,37
 605.081 41.4484 605.081 41.4484 530.989 9.16485 c 0,38,39
 457.169 -23 457.169 -23 368 -23 c 0,40,41
 280.663 -23 280.663 -23 209.714 9.29733 c 0,42,43
 138.483 41.7231 138.483 41.7231 94.5346 95.3184 c 0,44,45
 51.2706 148.08 51.2706 148.08 28.102 214.953 c 128,-1,46
 5 281.634 5 281.634 5 352 c 128,-1,47
 5 422.295 5 422.295 27.5564 488.914 c 0,48,49
 50.2063 555.81 50.2063 555.81 92.9587 608.588 c 0,50,51
 136.371 662.182 136.371 662.182 206.057 694.631 c 128,-1,52
 275.573 727 275.573 727 361 727 c 0,27,28
EndSplineSet
EndChar

StartChar: P
Encoding: 80 80 51
Width: 506
GlyphClass: 2
Flags: W
LayerCount: 2
Fore
SplineSet
32 713.097 m 1
 258.888 712.001 l 1
 326.547 713.091 326.547 713.091 377.533 681.501 c 0
 428.526 649.908 428.526 649.908 451.553 601.607 c 0
 474.044 554.431 474.044 554.431 473.499 498.804 c 0
 472.955 443.236 472.955 443.236 449.43 395.638 c 0
 425.364 346.947 425.364 346.947 372.922 314.93 c 0
 320.484 282.916 320.484 282.916 248.943 283.999 c 1
 164 283.19 l 1
 164 -16.5699 l 1
 32 -19.4395 l 1
 32 713.097 l 1
164 589.824 m 1
 164 405 l 1
 252 405 l 2
 277.788 405 277.788 405 296.669 417.981 c 0
 316.2 431.408 316.2 431.408 325.395 450.998 c 0
 335.229 471.949 335.229 471.949 336.527 497.033 c 0
 337.8 521.649 337.8 521.649 329.43 542.572 c 0
 321.582 562.192 321.582 562.192 302.778 575.796 c 0
 284.525 589 284.525 589 257.915 589 c 2
 164 589.824 l 1
EndSplineSet
EndChar

StartChar: Q
Encoding: 81 81 52
Width: 763
GlyphClass: 2
Flags: W
LayerCount: 2
Fore
SplineSet
360.152 607 m 0
 306.766 607 306.766 607 264.521 585.65 c 0
 222.251 564.287 222.251 564.287 196.575 529.6 c 0
 170.175 493.936 170.175 493.936 156.678 448.325 c 0
 143.057 402.294 143.057 402.294 143.996 354.392 c 0
 144.935 306.528 144.935 306.528 160.916 259.996 c 0
 176.809 213.718 176.809 213.718 204.698 178.393 c 0
 231.853 143.996 231.853 143.996 276.221 122.498 c 0
 320.591 101 320.591 101 375 101 c 0
 432.574 101 432.574 101 479.062 122.633 c 0
 525.416 144.204 525.416 144.204 554.021 179.165 c 0
 583.309 214.961 583.309 214.961 599.644 261.166 c 0
 616 307.432 616 307.432 616 355.5 c 0
 616 403.54 616 403.54 599.665 449.273 c 0
 583.38 494.868 583.38 494.868 553.217 530.599 c 0
 523.806 565.439 523.806 565.439 473.724 586.574 c 0
 423.089 607.941 423.089 607.941 360.152 607 c 0
367 727 m 0
 460.145 727 460.145 727 535.456 694.35 c 0
 611.112 661.549 611.112 661.549 657.589 608.127 c 0
 703.508 555.346 703.508 555.346 728.274 487.894 c 0
 753 420.552 753 420.552 753 350.5 c 0
 753 280.352 753 280.352 727.708 213.429 c 0
 702.447 146.586 702.447 146.586 657.099 94.384 c 0
 611.132 41.4704 611.132 41.4704 536.989 9.16485 c 0
 463.169 -23 463.169 -23 373 -23 c 0
 285.663 -23 285.663 -23 214.714 9.29733 c 0
 143.426 41.749 143.426 41.749 99.9587 95.4116 c 0
 57.2962 148.081 57.2962 148.081 33.6484 214.82 c 0
 10 281.562 10 281.562 10 352 c 0
 10 422.367 10 422.367 33.102 489.047 c 0
 56.2523 555.866 56.2523 555.866 98.9587 608.588 c 0
 142.371 662.182 142.371 662.182 212.057 694.631 c 0
 281.573 727 281.573 727 367 727 c 0
586.917 212.323 m 1
 736.825 45.88 l 1
 630.716 -41.8371 l 1
 496.954 111.824 l 1
 416.193 203.433 l 1
 520.3 287.575 l 1
 586.917 212.323 l 1
EndSplineSet
EndChar

StartChar: R
Encoding: 82 82 53
Width: 489
GlyphClass: 2
Flags: W
LayerCount: 2
Fore
SplineSet
28.9144 719.903 m 1
 255.76 720.999 l 2
 312.434 722.089 312.434 722.089 357.768 699.975 c 0
 403.369 677.732 403.369 677.732 429.325 641.053 c 0
 454.596 605.345 454.596 605.345 464.984 560.515 c 0
 475.378 515.659 475.378 515.659 468.235 472.253 c 0
 461.077 428.76 461.077 428.76 435.921 388.838 c 0
 415.598 356.586 415.598 356.586 385.526 334.115 c 1
 555.852 -19 l 1
 410.443 -19 l 1
 259.815 293.229 l 1
 253.274 293 253.274 293 246.094 293 c 2
 161.256 292.192 l 1
 165.259 -19 l 1
 32.0857 -19 l 1
 28.9144 719.903 l 1
161 598 m 1
 161 414 l 1
 250 414 l 2
 274.788 414 274.788 414 293.669 426.981 c 0
 313.346 440.509 313.346 440.509 323.039 460.297 c 0
 333.159 480.96 333.159 480.96 334.012 505.689 c 0
 334.867 530.483 334.867 530.483 326.43 551.572 c 0
 318.582 571.192 318.582 571.192 299.778 584.796 c 0
 281.525 598 281.525 598 255 598 c 2
 161 598 l 1
EndSplineSet
EndChar

StartChar: S
Encoding: 83 83 54
Width: 528
GlyphClass: 2
Flags: W
LayerCount: 2
Fore
SplineSet
255 725 m 0
 317.426 725 317.426 725 356.288 715.418 c 0
 396.92 705.401 396.92 705.401 436.279 674.787 c 2
 451.155 663.217 l 1
 382.013 562.51 l 1
 365.136 576.686 l 2
 321.596 613.259 321.596 613.259 250.099 606.11 c 0
 221.182 602.898 221.182 602.898 202.142 583.858 c 0
 182.93 564.646 182.93 564.646 179.825 541.357 c 0
 176.909 519.489 176.909 519.489 196.47 493.539 c 0
 217.374 465.811 217.374 465.811 264.641 448.866 c 2
 345.63 420.87 l 2
 375.875 410.068 375.875 410.068 404.299 391.834 c 0
 433.216 373.284 433.216 373.284 458.106 344.609 c 0
 483.113 315.796 483.113 315.796 497.837 281.985 c 0
 513.102 246.931 513.102 246.931 511.994 202.006 c 0
 510.894 157.451 510.894 157.451 490.186 111.678 c 0
 414.963 -50.7584 414.963 -50.7584 181.375 -19.8269 c 0
 180.377 -19.6691 l 1
 141.168 -12.4464 141.168 -12.4464 112.994 -3.57699 c 0
 84.8328 5.28867 84.8328 5.28867 72.7239 10.7927 c 0
 61.1751 16.0421 61.1751 16.0421 26.6422 34.3242 c 2
 13.6545 41.2001 l 1
 39.0359 177.978 l 1
 62.4092 167.146 l 2
 142.73 129.925 142.73 129.925 196.098 116.34 c 0
 226.679 108 226.679 108 257.5 108 c 0
 286.342 108 286.342 108 315.663 122.442 c 0
 344.023 136.41 344.023 136.41 362.237 162.915 c 1
 386.136 201.777 386.136 201.777 368.852 239.095 c 0
 350.539 278.635 350.539 278.635 305.891 292.956 c 2
 304.968 293.252 l 1
 304.078 293.636 l 2
 254.35 315.087 254.35 315.087 225.949 324.931 c 1
 159.859 344.33 159.859 344.33 116.423 381.868 c 0
 72.0078 420.251 72.0078 420.251 55.725 464.608 c 0
 39.5309 508.723 39.5309 508.723 45.6693 555.597 c 0
 51.7933 602.36 51.7933 602.36 77.512 639.82 c 0
 103.407 677.537 103.407 677.537 150.472 701.346 c 0
 197.228 725 197.228 725 255 725 c 0
EndSplineSet
EndChar

StartChar: T
Encoding: 84 84 55
Width: 490
GlyphClass: 2
Flags: W
LayerCount: 2
Fore
SplineSet
-4 706 m 1
 494 706 l 1
 494 586.11 l 1
 311.869 585.109 l 1
 307.868 -20 l 1
 176 -20 l 1
 176 1.05018 l 1
 178.901 585.11 l 1
 -4 586.109 l 1
 -4 706 l 1
EndSplineSet
EndChar

StartChar: U
Encoding: 85 85 56
Width: 592
GlyphClass: 2
Flags: W
LayerCount: 2
Fore
SplineSet
164.903 705.433 m 1,0,-1
 167 266.048 l 2,1,2
 167 227.465 167 227.465 178.335 195.727 c 0,3,4
 189.406 164.727 189.406 164.727 206.975 146.302 c 128,-1,5
 224.679 127.734 224.679 127.734 247.462 117.847 c 128,-1,6
 270.152 108 270.152 108 293.5 108 c 128,-1,7
 316.683 108 316.683 108 339.25 118.219 c 0,8,9
 362.322 128.667 362.322 128.667 380.692 147.475 c 0,10,11
 398.695 165.906 398.695 165.906 410.22 197.377 c 0,12,13
 422.08 229.764 422.08 229.764 423.005 270.454 c 2,14,-1
 424.068 317.216 l 1,15,-1
 424.883 316.401 l 1,16,-1
 423.952 702 l 1,17,-1
 554.809 702 l 1,18,-1
 558.999 265.247 l 2,19,20
 560.06 196.23 560.06 196.23 537.52 140.948 c 0,21,22
 514.818 85.2728 514.818 85.2728 476.985 50.7303 c 0,23,24
 439.607 16.6022 439.607 16.6022 391.453 -1.25243 c 128,-1,25
 343.38 -19.0773 343.38 -19.0773 293.07 -17.9954 c 0,26,27
 242.962 -16.9178 242.962 -16.9178 195.609 1.91594 c 128,-1,28
 148.143 20.7944 148.143 20.7944 111.408 54.8288 c 0,29,30
 73.985 89.4998 73.985 89.4998 52.819 144.857 c 0,31,32
 32.0594 199.152 32.0594 199.152 33.9984 264.296 c 1,33,-1
 31.9063 702.573 l 1,34,-1
 164.903 705.433 l 1,0,-1
EndSplineSet
EndChar

StartChar: V
Encoding: 86 86 57
Width: 675
GlyphClass: 2
Flags: W
LayerCount: 2
Fore
SplineSet
426.731 437.142 m 1
 545.851 713 l 1
 683.72 713 l 1
 329.252 -88.1196 l 1
 280.531 31.324 l 1
 -8.19092 713 l 1
 129.194 713 l 1
 247.442 436.74 l 1
 332.019 231.102 l 1
 426.731 437.142 l 1
EndSplineSet
EndChar

StartChar: W
Encoding: 87 87 58
Width: 865
GlyphClass: 2
Flags: W
LayerCount: 2
Fore
SplineSet
436.594 318.132 m 1
 267.9 -76.8356 l 1
 -0.945901 712 l 1
 129.298 712 l 1
 276.182 282.435 l 1
 399.605 567.85 l 1
 434.24 650.109 l 1
 468.434 566.761 l 1
 590.768 283.596 l 1
 736.729 713.165 l 1
 865.826 711.681 l 1
 597.711 -76.0452 l 1
 436.594 318.132 l 1
EndSplineSet
EndChar

StartChar: X
Encoding: 88 88 59
Width: 695
GlyphClass: 2
Flags: W
LayerCount: 2
Fore
SplineSet
-9.71817 -20 m 1
 78.5074 104.318 l 1
 267.799 389.697 l 1
 149.659 558.469 l 1
 36.242 718 l 1
 206.387 718 l 1
 302.489 581.321 l 1
 348.877 512.107 l 1
 402.368 593.108 l 1
 485.306 715.9 l 1
 639.433 717.354 l 1
 618.683 685.97 l 2
 608.788 671.004 608.788 671.004 588.995 640.731 c 0
 569.201 610.458 569.201 610.458 559.867 596.34 c 0
 556.347 590.987 556.347 590.987 549.733 580.59 c 0
 543.118 570.194 543.118 570.194 539.712 565.013 c 2
 427.998 395.095 l 1
 628 96.072 l 1
 628 94.8862 l 1
 702.912 -21.3558 l 1
 551.333 -19.8984 l 1
 488.528 72.6553 l 1
 347.489 274.395 l 1
 220.924 82.3344 l 1
 159.303 -20 l 1
 -9.71817 -20 l 1
EndSplineSet
EndChar

StartChar: Y
Encoding: 89 89 60
Width: 604
GlyphClass: 2
Flags: W
LayerCount: 2
Fore
SplineSet
-21.2559 712 m 1
 132.725 712 l 1
 303.814 454.427 l 1
 471.143 712 l 1
 624.966 712 l 1
 374 328.043 l 1
 374 -16.442 l 1
 227.559 -20.5865 l 1
 234.903 325.627 l 1
 -21.2559 712 l 1
EndSplineSet
EndChar

StartChar: Z
Encoding: 90 90 61
Width: 795
GlyphClass: 2
Flags: W
LayerCount: 2
Fore
SplineSet
149 702 m 1
 718.34 702 l 1
 641.799 581.145 l 1
 333.142 113 l 1
 695 113 l 1
 695 -17.9281 l 1
 81.4897 -20.1389 l 1
 103.615 11.4692 l 2
 110.77 21.6908 110.77 21.6908 130.929 48.9046 c 0
 150.588 75.4446 150.588 75.4446 169.268 103.956 c 2
 478.999 577 l 1
 149 577 l 1
 149 702 l 1
EndSplineSet
EndChar

StartChar: bracketleft
Encoding: 91 91 62
Width: 348
GlyphClass: 2
Flags: W
LayerCount: 2
Fore
SplineSet
42 -20 m 1
 42 724.43 l 1
 156.213 722 l 1
 304.216 722 l 1
 302.786 589 l 1
 176 589 l 1
 176 112 l 1
 306.219 112 l 1
 304.784 -20 l 1
 42 -20 l 1
EndSplineSet
EndChar

StartChar: backslash
Encoding: 92 92 63
Width: 492
GlyphClass: 2
Flags: W
LayerCount: 2
Fore
SplineSet
312.195 -20 m 1
 29.8017 724.588 l 1
 172.769 721.729 l 1
 462.276 -20 l 1
 312.195 -20 l 1
EndSplineSet
EndChar

StartChar: bracketright
Encoding: 93 93 64
Width: 344
GlyphClass: 2
Flags: W
LayerCount: 2
Fore
SplineSet
304 -20 m 1
 41.2162 -20 l 1
 39.7814 112 l 1
 170 112 l 1
 170 589 l 1
 43.2139 589 l 1
 41.7838 722 l 1
 189.787 722 l 1
 304 724.43 l 1
 304 -20 l 1
EndSplineSet
EndChar

StartChar: asciicircum
Encoding: 94 94 65
Width: 605
GlyphClass: 2
Flags: W
LayerCount: 2
Fore
SplineSet
485.829 510 m 1,0,-1
 350.41 510 l 1,1,-1
 307.129 573.696 l 1,2,-1
 259.031 510.108 l 1,3,-1
 116.949 508.564 l 1,4,-1
 309.689 768.508 l 1,5,-1
 485.829 510 l 1,0,-1
EndSplineSet
EndChar

StartChar: underscore
Encoding: 95 95 66
Width: 559
GlyphClass: 2
Flags: W
LayerCount: 2
Fore
SplineSet
531 20 m 1
 531 -102 l 1
 28 -102 l 1
 28 20 l 1
 531 20 l 1
EndSplineSet
EndChar

StartChar: grave
Encoding: 96 96 67
Width: 1000
GlyphClass: 2
Flags: W
LayerCount: 2
Fore
SplineSet
460.149 1014.89 m 1,0,-1
 629.366 837.215 l 1,1,-1
 552.086 764.572 l 1,2,-1
 370.391 909.211 l 1,3,-1
 460.149 1014.89 l 1,0,-1
EndSplineSet
EndChar

StartChar: a
Encoding: 97 97 68
Width: 509
GlyphClass: 2
Flags: W
LayerCount: 2
Fore
SplineSet
13 206.83 m 1,0,1
 13 267.049 13 267.049 33.575 315.779 c 0,2,3
 54.439 365.195 54.439 365.195 90.1026 395.286 c 0,4,5
 124.917 424.661 124.917 424.661 168.393 439.877 c 0,6,7
 212.174 455.201 212.174 455.201 258.674 452.465 c 0,8,9
 304.931 449.745 304.931 449.745 345.163 431.26 c 2,10,-1
 350 429.032 l 1,11,-1
 350 447 l 1,12,-1
 483.047 447 l 1,13,-1
 481.953 -20 l 1,14,-1
 351 -20 l 1,15,-1
 351 -3.39413 l 1,16,17
 323.11 -16.5416 323.11 -16.5416 292.381 -22.6199 c 0,18,19
 242.712 -32.4445 242.712 -32.4445 194.568 -21.5027 c 0,20,21
 147.004 -10.6928 147.004 -10.6928 106.958 15.8244 c 0,22,23
 65.6188 43.1978 65.6188 43.1978 39.7302 93.3222 c 0,24,25
 14.0822 142.981 14.0822 142.981 13 206.83 c 1,0,1
139 210 m 0,26,27
 139 170.866 139 170.866 157.332 142.302 c 0,28,29
 175.183 114.488 175.183 114.488 201.835 104.796 c 0,30,31
 231.382 94.0512 231.382 94.0512 262.21 94.4979 c 0,32,33
 290.023 94.9009 290.023 94.9009 313.74 113.302 c 128,-1,34
 337.443 131.691 337.443 131.691 345.684 162.187 c 0,35,36
 348.935 174.378 348.935 174.378 348.006 212.006 c 0,37,38
 347.089 249.133 347.089 249.133 345.376 261.968 c 1,39,40
 337.506 290.108 337.506 290.108 320.021 307.196 c 0,41,42
 301.863 324.943 301.863 324.943 279.566 330.618 c 0,43,44
 256.335 336.531 256.335 336.531 231.166 331.839 c 128,-1,45
 206.121 327.169 206.121 327.169 185.783 312.34 c 0,46,47
 165.713 297.706 165.713 297.706 152.389 271.056 c 128,-1,48
 139 244.279 139 244.279 139 210 c 0,26,27
EndSplineSet
EndChar

StartChar: b
Encoding: 98 98 69
Width: 511
GlyphClass: 2
Flags: W
LayerCount: 2
Fore
SplineSet
494 206.83 m 0
 492.918 142.982 492.918 142.982 467.27 93.3222 c 0
 441.381 43.1982 441.381 43.1982 400.042 15.8244 c 0
 359.996 -10.6927 359.996 -10.6927 312.432 -21.5027 c 0
 264.288 -32.4446 264.288 -32.4446 214.619 -22.6199 c 0
 183.89 -16.5416 183.89 -16.5416 156 -3.39413 c 1
 156 -20 l 1
 25.0267 -20 l 1
 23.9732 768 l 1
 157 768 l 1
 157 424.715 l 1
 174.434 434.905 174.434 434.905 187.896 439.047 c 0
 220.609 449.951 220.609 449.951 256.697 450.498 c 0
 292.352 451.037 292.352 451.037 326.423 442.385 c 0
 361.202 433.552 361.202 433.552 392.025 413.187 c 0
 422.714 392.91 422.714 392.91 445.205 364.383 c 0
 467.946 335.54 467.946 335.54 481.048 294.596 c 0
 494 254.123 494 254.123 494 206.83 c 0
359 211 m 0
 359 250.321 359 250.321 340.984 279.49 c 0
 323.387 307.982 323.387 307.982 297.87 318.513 c 0
 270.18 329.941 270.18 329.941 240.798 329.502 c 0
 214.17 329.105 214.17 329.105 191.528 310.91 c 0
 169.341 293.081 169.341 293.081 160.633 261.04 c 1
 158.908 248.162 158.908 248.162 157.993 212.487 c 0
 157.072 176.55 157.072 176.55 160.27 165.357 c 0
 168.543 134.745 168.543 134.745 191.181 117.363 c 0
 213.925 99.8989 213.925 99.8989 240.798 99.4978 c 0
 270.464 99.055 270.464 99.055 298.38 109.69 c 0
 323.831 119.385 323.831 119.385 341.279 145.973 c 0
 359 172.977 359 172.977 359 211 c 0
EndSplineSet
EndChar

StartChar: c
Encoding: 99 99 70
Width: 421
GlyphClass: 2
Flags: W
LayerCount: 2
Fore
SplineSet
285.116 449.888 m 0,0,1
 343.205 443.433 343.205 443.433 382.563 421.566 c 0,2,3
 386.081 419.69 386.081 419.69 388.874 418.617 c 128,-1,4
 391.668 417.543 391.668 417.543 392.734 417.136 c 128,-1,5
 393.801 416.729 393.801 416.729 396.019 414.95 c 128,-1,6
 398.237 413.172 398.237 413.172 402.227 409.182 c 0,7,8
 403.713 408.005 403.713 408.005 405.279 406.787 c 2,9,-1
 419.691 395.578 l 1,10,-1
 343.731 277.08 l 1,11,-1
 326.615 301.531 l 2,12,13
 323.036 306.645 323.036 306.645 306.072 313.43 c 0,14,15
 286.438 321.284 286.438 321.284 272.772 323.123 c 0,16,17
 236.979 326.392 236.979 326.392 204.758 311.784 c 0,18,19
 173.491 297.61 173.491 297.61 157.572 267.445 c 0,20,21
 133.327 224.152 133.327 224.152 142.903 185.851 c 0,22,23
 152.359 148.028 152.359 148.028 193.001 124.32 c 0,24,25
 216.6 110.835 216.6 110.835 243.95 109.98 c 0,26,27
 285.418 107.333 285.418 107.333 316.287 124.483 c 2,28,-1
 316.94 124.846 l 1,29,-1
 317.619 125.159 l 2,30,31
 328.223 130.054 328.223 130.054 332.196 133.364 c 2,32,-1
 350.45 148.576 l 1,33,-1
 415.456 35.898 l 1,34,-1
 403.307 25.0697 l 2,35,36
 351.529 -21.0805 351.529 -21.0805 248.895 -20 c 0,37,38
 169.339 -20 169.339 -20 125.629 6.89854 c 0,39,40
 36.8873 59.9272 36.8873 59.9272 12.2382 148.116 c 0,41,42
 -12.4702 236.518 -12.4702 236.518 37.5188 326.716 c 0,43,44
 74.6565 393.345 74.6565 393.345 142.963 425.587 c 0,45,46
 210.487 457.458 210.487 457.458 285.116 449.888 c 0,0,1
EndSplineSet
EndChar

StartChar: d
Encoding: 100 100 71
Width: 515
GlyphClass: 2
Flags: W
LayerCount: 2
Fore
SplineSet
23.0037 206.618 m 0
 21.9285 261.45 21.9285 261.45 39.2825 307.547 c 0
 56.8738 354.274 56.8738 354.274 87.1272 383.406 c 0
 116.37 411.565 116.37 411.565 154.657 430.439 c 0
 193.963 449.814 193.963 449.814 235.701 451.484 c 0
 275.475 453.075 275.475 453.075 315.03 445.592 c 0
 340.212 439.997 340.212 439.997 359 433.479 c 1
 359 768 l 1
 492.027 768 l 1
 490.973 -20 l 1
 361.519 -20 l 1
 361.077 -3.18542 l 1
 357.513 -5.25378 357.513 -5.25378 354.909 -6.36972 c 0
 314.705 -23.7554 314.705 -23.7554 269.188 -26.4647 c 0
 223.336 -29.1939 223.336 -29.1939 180.675 -14.9737 c 0
 138.478 -0.907774 138.478 -0.907774 103.306 26.1475 c 0
 66.8479 54.192 66.8479 54.192 45.2854 101.74 c 0
 24.0798 148.501 24.0798 148.501 23.0037 206.618 c 0
157 211 m 0
 157 173.095 157 173.095 175.101 146.154 c 0
 193.058 119.428 193.058 119.428 218.62 109.69 c 0
 246.536 99.055 246.536 99.055 276.202 99.4978 c 0
 303.075 99.8989 303.075 99.8989 325.819 117.363 c 0
 348.141 134.503 348.141 134.503 356.542 164.664 c 1
 358.957 177.246 358.957 177.246 358.502 212.744 c 0
 358.046 248.308 358.046 248.308 356.395 260.813 c 1
 346.859 292.92 346.859 292.92 324.472 310.91 c 0
 301.828 329.107 301.828 329.107 275.697 329.502 c 0
 246.761 329.94 246.761 329.94 218.528 318.471 c 0
 192.582 307.93 192.582 307.93 175.016 279.49 c 0
 157 250.322 157 250.322 157 211 c 0
EndSplineSet
EndChar

StartChar: e
Encoding: 101 101 72
Width: 500
GlyphClass: 2
Flags: W
LayerCount: 2
Fore
SplineSet
467.787 68.7212 m 2,0,1
 436.806 28.8893 436.806 28.8893 378.549 1.91864 c 0,2,3
 346.659 -13.4767 346.659 -13.4767 300.15 -18.8847 c 0,4,5
 278.998 -21 278.998 -21 258 -21 c 0,6,7
 229.345 -21 229.345 -21 203.428 -16.6805 c 0,8,9
 142.256 -4.66453 142.256 -4.66453 98.3881 30.9777 c 128,-1,10
 54.4906 66.6444 54.4906 66.6444 34.5512 114.277 c 0,11,12
 14.959 161.081 14.959 161.081 15.501 214.204 c 128,-1,13
 16.0415 267.174 16.0415 267.174 36.0953 314.327 c 0,14,15
 56.5016 362.309 56.5016 362.309 100.753 398.911 c 128,-1,16
 145.107 435.598 145.107 435.598 204.183 447.633 c 0,17,18
 233.162 453 233.162 453 264 453 c 0,19,20
 292.729 453 292.729 453 317.675 448.661 c 0,21,22
 384.352 435.326 384.352 435.326 425.274 390.481 c 0,23,24
 465.535 346.359 465.535 346.359 476.619 290.385 c 0,25,26
 487.35 236.192 487.35 236.192 476.689 176.484 c 2,27,-1
 473.754 160.051 l 1,28,-1
 161.303 159.09 l 1,29,30
 170.759 141.61 170.759 141.61 184.721 130.832 c 0,31,32
 208.534 112.45 208.534 112.45 263.634 107.933 c 0,33,-1
 265.288 107.728 l 2,34,35
 274.692 106.16 274.692 106.16 287.574 107.407 c 128,-1,36
 300.533 108.661 300.533 108.661 324.136 117.285 c 0,37,38
 345.836 125.214 345.836 125.214 362.026 140.311 c 2,39,-1
 362.442 140.726 l 1,40,-1
 362.858 141.142 l 1,41,-1
 373.9 152.184 l 1,42,-1
 472 93.3238 l 1,43,-1
 472 74.1378 l 1,44,-1
 467.787 68.7212 l 2,0,1
349.819 271.903 m 1,45,46
 342.231 305.466 342.231 305.466 321.834 320.733 c 128,-1,47
 301.438 336 301.438 336 263 336 c 0,48,49
 214.931 336 214.931 336 186.707 309.436 c 0,50,51
 168.004 291.833 168.004 291.833 159.596 271.107 c 1,52,-1
 349.819 271.903 l 1,45,46
EndSplineSet
EndChar

StartChar: f
Encoding: 102 102 73
Width: 359
GlyphClass: 2
Flags: W
LayerCount: 2
Fore
SplineSet
61 -20 m 1
 61 326 l 1
 11 326 l 1
 11 442 l 1
 65.4025 442 l 1
 67.6368 494.211 67.6368 494.211 81.0056 534.762 c 0
 97.5646 584.99 97.5646 584.99 125.655 611.934 c 0
 152.889 638.054 152.889 638.054 181.885 649.994 c 0
 211.044 662 211.044 662 241 662 c 0
 260.644 662 260.644 662 276.199 657.812 c 0
 290.526 653.956 290.526 653.956 304.793 647.919 c 0
 316.359 643.026 316.359 643.026 322.851 641.403 c 2
 349.844 634.654 l 1
 276.918 520.708 l 1
 248.275 535.871 l 1
 223.46 534.296 223.46 534.296 213.254 516.886 c 0
 201.321 496.531 201.321 496.531 199.332 442 c 1
 302 442 l 1
 302 324 l 1
 196.058 324 l 1
 197.058 -20 l 1
 61 -20 l 1
EndSplineSet
EndChar

StartChar: g
Encoding: 103 103 74
Width: 476
GlyphClass: 2
Flags: W
LayerCount: 2
Fore
SplineSet
138 224 m 0,0,1
 138 191.097 138 191.097 155.099 165.657 c 128,-1,2
 172.329 140.021 172.329 140.021 196.952 129.351 c 0,3,4
 223.147 118 223.147 118 250.5 118 c 0,5,6
 274.802 118 274.802 118 295.255 134.913 c 0,7,8
 315.189 151.397 315.189 151.397 323.012 181.463 c 1,9,10
 323.118 192.4 323.118 192.4 324.015 215.284 c 0,11,12
 324.967 239.559 324.967 239.559 324.069 250.339 c 2,13,-1
 324 251.168 l 1,14,-1
 324 252 l 2,15,16
 324 278.568 324 278.568 311.249 296.342 c 128,-1,17
 298.374 314.289 298.374 314.289 279.226 321.182 c 0,18,19
 258.336 328.702 258.336 328.702 233.189 326.571 c 0,20,21
 207.838 324.423 207.838 324.423 186.503 312.902 c 0,22,23
 166.278 301.98 166.278 301.98 152.096 278.62 c 128,-1,24
 138 255.404 138 255.404 138 224 c 0,0,1
461 5.94996 m 2,25,26
 461 -112.168 461 -112.168 367.561 -180.322 c 1,27,28
 314.417 -216.859 314.417 -216.859 242.454 -218.495 c 0,29,30
 171.17 -220.115 171.17 -220.115 114.555 -189.629 c 0,31,32
 84.597 -173.652 84.597 -173.652 78.018 -170.109 c 0,33,34
 69.4047 -165.471 69.4047 -165.471 57.6207 -154.866 c 2,35,-1
 46.2344 -144.618 l 1,36,-1
 98.1559 -42.2173 l 1,37,-1
 115.944 -51.1115 l 2,38,39
 118.06 -52.1692 118.06 -52.1692 174.071 -81.1748 c 0,40,41
 194.367 -91.3226 194.367 -91.3226 219.376 -93.0474 c 0,42,43
 244.724 -94.7955 244.724 -94.7955 267.72 -87.8534 c 0,44,45
 289.892 -81.1601 289.892 -81.1601 308.547 -64.2012 c 0,46,47
 325.058 -49.1904 325.058 -49.1904 331.905 -27.4706 c 1,48,-1
 330.994 -0.163586 l 1,49,-1
 331.304 18.1068 l 1,50,51
 318.078 10.8506 318.078 10.8506 303.912 6.05568 c 0,52,53
 268.015 -6.0943 268.015 -6.0943 229.429 -4.99184 c 128,-1,54
 190.874 -3.89028 190.874 -3.89028 152.572 11.4305 c 0,55,56
 114.597 26.6203 114.597 26.6203 84.1426 52.1805 c 0,57,58
 52.669 78.5958 52.669 78.5958 33.2927 121.224 c 0,59,60
 14.0939 163.461 14.0939 163.461 13 213.783 c 1,61,62
 13 267.852 13 267.852 31.4305 313.928 c 0,63,64
 50.1636 360.76 50.1636 360.76 83.1346 390.378 c 0,65,66
 115.202 419.185 115.202 419.185 154.898 435.499 c 0,67,68
 195.288 452.098 195.288 452.098 239.994 450.994 c 128,-1,69
 284.61 449.892 284.61 449.892 325.163 431.26 c 2,70,-1
 328.93 429.545 l 1,71,-1
 328.494 447 l 1,72,-1
 463.095 447 l 1,73,-1
 461 5.94996 l 2,25,26
EndSplineSet
EndChar

StartChar: h
Encoding: 104 104 75
Width: 487
GlyphClass: 2
Flags: W
LayerCount: 2
Fore
SplineSet
457 229 m 2
 457 71.5 l 2
 457 61.7204 457 61.7204 456.492 43.4447 c 0
 456 25.7245 456 25.7245 456 -1 c 2
 456 -21 l 1
 322 -21 l 1
 322 -1 l 2
 322 31.1562 322 31.1562 322.502 63.3125 c 0
 323 95.1344 323 95.1344 323.001 131.5 c 2
 323 235 l 2
 323 268.731 323 268.731 310.595 290.648 c 0
 298.746 311.581 298.746 311.581 282.042 319.376 c 0
 264.285 327.663 264.285 327.663 243.005 326.057 c 0
 221.229 324.413 221.229 324.413 202.79 313.35 c 0
 184.578 302.423 184.578 302.423 172.15 281.71 c 0
 160 261.461 160 261.461 160 235 c 2
 160 -21 l 1
 30.0269 -21 l 1
 28.9747 760.75 l 1
 162 769.332 l 1
 162 425.622 l 1
 178.015 435.59 178.015 435.59 191.902 440.053 c 0
 227.216 452 227.216 452 264 452 c 0
 361.821 452 361.821 452 410.326 389.229 c 0
 457 328.827 457 328.827 457 229 c 2
EndSplineSet
EndChar

StartChar: i
Encoding: 105 105 76
Width: 207
GlyphClass: 2
Flags: W
LayerCount: 2
Fore
SplineSet
31 545 m 0
 31 577.477 31 577.477 54.8352 596.979 c 0
 76.6379 614.818 76.6379 614.818 102.987 615.493 c 0
 129.706 616.179 129.706 616.179 151.877 598.71 c 0
 176 579.703 176 579.703 176 546 c 0
 176 511.951 176 511.951 152.702 491.477 c 0
 130.54 472 130.54 472 103.5 472 c 0
 76.6586 472 76.6586 472 54.5605 490.75 c 0
 31 510.74 31 510.74 31 545 c 0
38.9078 453 m 1
 171 453 l 1
 171 -22 l 1
 41.0917 -22 l 1
 38.9078 453 l 1
EndSplineSet
EndChar

StartChar: j
Encoding: 106 106 77
Width: 207
GlyphClass: 2
Flags: W
LayerCount: 2
Fore
SplineSet
31 545 m 0
 31 577.477 31 577.477 54.8352 596.979 c 0
 76.6379 614.818 76.6379 614.818 102.987 615.493 c 0
 129.706 616.179 129.706 616.179 151.877 598.71 c 0
 176 579.703 176 579.703 176 546 c 0
 176 511.951 176 511.951 152.702 491.477 c 0
 130.54 472 130.54 472 103.5 472 c 0
 76.6586 472 76.6586 472 54.5605 490.75 c 0
 31 510.74 31 510.74 31 545 c 0
39 450 m 1
 171.038 450 l 1
 169.962 -122 l 1
 39 -122 l 1
 39 450 l 1
EndSplineSet
EndChar

StartChar: k
Encoding: 107 107 78
Width: 490
GlyphClass: 2
Flags: W
LayerCount: 2
Fore
SplineSet
163.039 768 m 1
 162.095 286.379 l 1
 320.786 445.07 l 1
 494.709 443.596 l 1
 279.217 227.005 l 1
 524.732 -19.5962 l 1
 350.786 -21.0703 l 1
 162 167.716 l 1
 162 -20 l 1
 28.9732 -20 l 1
 30.0267 768 l 1
 163.039 768 l 1
EndSplineSet
EndChar

StartChar: l
Encoding: 108 108 79
Width: 210
GlyphClass: 2
Flags: W
LayerCount: 2
Fore
SplineSet
171 237.98 m 1
 171 -20 l 1
 38 -20 l 1
 38 802 l 1
 172.037 802 l 1
 171 237.98 l 1
EndSplineSet
EndChar

StartChar: m
Encoding: 109 109 80
Width: 746
GlyphClass: 2
Flags: W
LayerCount: 2
Fore
SplineSet
254 453 m 0
 292.814 453 292.814 453 320.361 442.096 c 0
 347.504 431.352 347.504 431.352 372.029 408.208 c 0
 376.923 404.676 376.923 404.676 379.686 404.157 c 0
 381.51 403.815 381.51 403.815 383.1 403.656 c 0
 385.931 405.371 385.931 405.371 389.636 408.101 c 0
 398.952 414.965 398.952 414.965 404.495 418.069 c 0
 427.92 434.312 427.92 434.312 457.525 442.948 c 1
 475.135 449.832 475.135 449.832 488.001 450.475 c 0
 498.793 451.014 498.793 451.014 512.769 449.999 c 0
 609.205 449.593 609.205 449.593 658.399 385.133 c 0
 706 322.761 706 322.761 706 223 c 2
 706 69.5 l 2
 706 60.6798 706 60.6798 705.49 44.3753 c 0
 705 28.6944 705 28.6944 705 1 c 2
 705 -18.7906 l 1
 570 -20.2116 l 1
 570 60.5 l 2
 570 89.1707 570 89.1707 570.502 123.294 c 0
 571 157.138 571 157.138 571 225 c 0
 571 258.355 571 258.355 559.547 281.687 c 0
 548.561 304.065 548.561 304.065 533.4 313.54 c 0
 518.264 323 518.264 323 500.5 323 c 0
 482.34 323 482.34 323 466.969 314.162 c 0
 451.897 305.495 451.897 305.495 441.098 285.497 c 0
 430 264.945 430 264.945 430 236 c 0
 430 230.714 430 230.714 429 -0.0869557 c 2
 428.913 -20 l 1
 302 -20 l 1
 302 64 l 2
 302 95.1033 302 95.1033 302.502 130.782 c 0
 303 166.176 303 166.176 303 233 c 0
 303 267.201 303 267.201 291.177 290.426 c 0
 279.928 312.523 279.928 312.523 264.715 321.057 c 0
 248.968 329.891 248.968 329.891 230.417 329.504 c 0
 211.42 329.108 211.42 329.108 195.285 320.057 c 0
 179.616 311.267 179.616 311.267 168.365 291.577 c 0
 157 271.688 157 271.688 157 245 c 2
 157 -20 l 1
 27.0466 -20 l 1
 25.9533 449 l 1
 159 449 l 1
 159 431.007 l 1
 171.856 437.637 171.856 437.637 195.253 444.657 c 0
 223.064 453 223.064 453 254 453 c 0
EndSplineSet
EndChar

StartChar: n
Encoding: 110 110 81
Width: 426
GlyphClass: 2
Flags: W
LayerCount: 2
Fore
SplineSet
424 229.955 m 2
 422.913 -20 l 1
 289 -20 l 1
 289 65.5 l 2
 289 98.1515 289 98.1515 289.502 135.27 c 0
 290 172.117 290 172.117 290 239 c 0
 290 273.124 290 273.124 278.245 295.794 c 0
 267.092 317.302 267.092 317.302 252.044 325.377 c 0
 236.562 333.684 236.562 333.684 218.248 332.539 c 0
 199.075 331.341 199.075 331.341 182.23 321.314 c 0
 165.974 311.639 165.974 311.639 155.098 291.497 c 0
 144 270.945 144 270.945 144 244.082 c 2
 146.165 -20 l 1
 16.0466 -20 l 1
 14.9533 449 l 1
 148 449 l 1
 148 429.131 l 1
 156.023 433.263 156.023 433.263 165.158 437.942 c 0
 188.502 449 188.502 449 248 449 c 0
 344.589 449 344.589 449 385.542 388.742 c 0
 424 332.153 424 332.153 424 229.955 c 2
EndSplineSet
EndChar

StartChar: o
Encoding: 111 111 82
Width: 499
GlyphClass: 2
Flags: W
LayerCount: 2
Fore
SplineSet
248 342 m 0,0,1
 210.977 342 210.977 342 183.973 324.279 c 0,2,3
 156.657 306.353 156.657 306.353 144.563 280.913 c 0,4,5
 131.937 254.356 131.937 254.356 131.498 222.722 c 128,-1,6
 131.06 191.174 131.06 191.174 143.227 164.232 c 0,7,8
 154.817 138.569 154.817 138.569 181.409 121.263 c 128,-1,9
 207.935 104 207.935 104 245 104 c 0,10,11
 302.139 104 302.139 104 335.147 140.394 c 0,12,13
 357.271 165.071 357.271 165.071 363.292 199.906 c 0,14,15
 369.465 235.621 369.465 235.621 359.424 267.49 c 0,16,17
 349.848 297.883 349.848 297.883 320.463 320.028 c 0,18,19
 291.307 342 291.307 342 248 342 c 0,0,1
249 454 m 0,20,21
 326.662 454 326.662 454 383.482 419.033 c 128,-1,22
 440.494 383.948 440.494 383.948 466.036 330.642 c 0,23,24
 491.04 278.461 491.04 278.461 490.499 217.323 c 128,-1,25
 489.959 156.239 489.959 156.239 463.925 103.63 c 0,26,27
 437.336 49.896 437.336 49.896 379.337 14.8787 c 0,28,29
 321.569 -20 321.569 -20 245 -20 c 0,30,31
 167.43 -20 167.43 -20 109.663 14.8787 c 0,32,33
 51.5086 49.9906 51.5086 49.9906 25.929 103.93 c 0,34,35
 0.92017 156.667 0.92017 156.667 2.00313 217.854 c 128,-1,36
 3.08492 278.975 3.08492 278.975 29.6863 331.092 c 0,37,38
 56.7791 384.172 56.7791 384.172 114.663 419.121 c 128,-1,39
 172.43 454 172.43 454 249 454 c 0,20,21
EndSplineSet
EndChar

StartChar: p
Encoding: 112 112 83
Width: 507
GlyphClass: 2
Flags: W
LayerCount: 2
Fore
SplineSet
487.997 206.663 m 0
 486.92 143.073 486.92 143.073 461.849 93.4774 c 0
 436.429 43.1903 436.429 43.1903 394.439 15.7567 c 0
 353.934 -10.7068 353.934 -10.7068 306.432 -21.5027 c 0
 258.288 -32.4446 258.288 -32.4446 208.619 -22.6199 c 0
 178.041 -16.5714 178.041 -16.5714 150.851 -3.61243 c 1
 149.914 -221 l 1
 20.0318 -221 l 1
 18.9681 447 l 1
 152 447 l 1
 152 429.649 l 1
 179.057 442.543 179.057 442.543 210.16 448.628 c 0
 260.501 458.477 260.501 458.477 309.299 446.416 c 0
 357.371 434.533 357.371 434.533 397.896 406.436 c 0
 439.822 377.366 439.822 377.366 464.609 324.489 c 0
 489.073 272.3 489.073 272.3 487.997 206.663 c 0
354 211 m 0
 354 250.321 354 250.321 335.984 279.49 c 0
 318.419 307.93 318.419 307.93 292.472 318.471 c 0
 264.24 329.94 264.24 329.94 235.303 329.502 c 0
 209.172 329.107 209.172 329.107 186.528 310.91 c 0
 164.141 292.92 164.141 292.92 154.605 260.813 c 1
 152.954 248.308 152.954 248.308 152.498 212.744 c 0
 152.043 177.246 152.043 177.246 154.458 164.664 c 1
 162.859 134.503 162.859 134.503 185.181 117.363 c 0
 207.925 99.8989 207.925 99.8989 234.798 99.4978 c 0
 264.464 99.055 264.464 99.055 292.38 109.69 c 0
 317.943 119.428 317.943 119.428 335.899 146.154 c 0
 354 173.095 354 173.095 354 211 c 0
EndSplineSet
EndChar

StartChar: q
Encoding: 113 113 84
Width: 497
GlyphClass: 2
Flags: W
LayerCount: 2
Fore
SplineSet
14.0038 206.608 m 0
 12.9287 254.988 12.9287 254.988 26.5015 296.25 c 0
 40.1513 337.745 40.1513 337.745 63.9688 367.101 c 0
 87.5119 396.119 87.5119 396.119 119.244 416.361 c 0
 151.148 436.714 151.148 436.714 187.003 444.988 c 0
 222.02 453.068 222.02 453.068 258.097 451.991 c 0
 294.463 450.905 294.463 450.905 328.753 437.833 c 0
 340.152 433.94 340.152 433.94 350 428.945 c 1
 350 447 l 1
 483.032 447 l 1
 481.968 -221 l 1
 352.086 -221 l 1
 351.149 -3.61243 l 1
 323.959 -16.5714 323.959 -16.5714 293.381 -22.6199 c 0
 243.712 -32.4445 243.712 -32.4445 195.568 -21.5027 c 0
 148.067 -10.7069 148.067 -10.7069 107.561 15.7567 c 0
 65.5708 43.1904 65.5708 43.1904 40.1509 93.4774 c 0
 15.0806 143.073 15.0806 143.073 14.0038 206.608 c 0
148 211 m 0
 148 173.095 148 173.095 166.101 146.154 c 0
 184.058 119.428 184.058 119.428 209.62 109.69 c 0
 237.536 99.055 237.536 99.055 267.202 99.4978 c 0
 294.075 99.8989 294.075 99.8989 316.819 117.363 c 0
 339.141 134.503 339.141 134.503 347.542 164.664 c 1
 349.957 177.246 349.957 177.246 349.502 212.744 c 0
 349.046 248.308 349.046 248.308 347.395 260.813 c 1
 337.859 292.92 337.859 292.92 315.472 310.91 c 0
 292.828 329.107 292.828 329.107 266.697 329.502 c 0
 237.761 329.94 237.761 329.94 209.528 318.471 c 0
 183.582 307.93 183.582 307.93 166.016 279.49 c 0
 148 250.322 148 250.322 148 211 c 0
EndSplineSet
EndChar

StartChar: r
Encoding: 114 114 85
Width: 343
GlyphClass: 2
Flags: W
LayerCount: 2
Fore
SplineSet
261 460 m 0
 294.416 460 294.416 460 326.422 445.14 c 2
 344.186 436.893 l 1
 293.706 321.911 l 1
 277.661 325.476 l 2
 255.083 330.493 255.083 330.493 226.997 324.012 c 0
 200.747 317.955 200.747 317.955 183.674 300.409 c 1
 167.785 282.523 167.785 282.523 155.276 254.377 c 0
 143 226.756 143 226.756 143 203.952 c 2
 141.902 -20 l 1
 12.0466 -20 l 1
 10.9533 449 l 1
 144.234 449 l 1
 143.877 418.293 l 1
 170.206 441.524 170.206 441.524 199.594 450.608 c 0
 229.978 460 229.978 460 261 460 c 0
EndSplineSet
EndChar

StartChar: s
Encoding: 115 115 86
Width: 416
GlyphClass: 2
Flags: W
LayerCount: 2
Fore
SplineSet
20.0945 78.697 m 1
 115.596 162.963 l 1
 128.688 146.405 l 2
 157.563 109.887 157.563 109.887 208.5 103.844 c 0
 232.552 100.637 232.552 100.637 248.056 108.389 c 0
 262.031 115.376 262.031 115.376 265.273 124.022 c 0
 267.77 130.68 267.77 130.68 262.627 138.762 c 0
 256.144 148.95 256.144 148.95 236.379 154.806 c 0
 159.884 176.949 159.884 176.949 142.344 183.14 c 0
 141.239 183.567 l 1
 96.6854 202.327 96.6854 202.327 76.8451 239.603 c 0
 58 275.009 58 275.009 58 314 c 0
 58 335.481 58 335.481 66.1761 358.257 c 0
 74.3448 381.013 74.3448 381.013 92.5385 403.186 c 0
 111.925 426.813 111.925 426.813 149.915 441.203 c 0
 186.34 455 186.34 455 234 455 c 0
 326.429 455 326.429 455 372.316 407.966 c 2
 384.399 395.581 l 1
 309.877 298.245 l 1
 293.815 316.984 l 2
 274.772 339.201 274.772 339.201 245.141 343.205 c 0
 235.074 344.754 235.074 344.754 222.685 342.755 c 0
 212.111 341.05 212.111 341.05 201.588 333.066 c 0
 195 328.068 195 328.068 195 318 c 0
 195 307.461 195 307.461 201.775 300.049 c 0
 208.55 292.637 208.55 292.637 226.961 286.413 c 1
 273.89 277.427 l 1
 274.987 277.083 l 2
 331.207 259.445 331.207 259.445 361.866 225.379 c 0
 393.649 190.065 393.649 190.065 395.479 150.422 c 0
 397.17 113.783 397.17 113.783 384.7 80.9069 c 0
 372.087 47.6539 372.087 47.6539 347.825 24.5475 c 0
 319.126 -3.00391 319.126 -3.00391 282.134 -12.8297 c 0
 247.839 -21.9394 247.839 -21.9394 202.526 -22.9932 c 0
 164.347 -24.1161 164.347 -24.1161 107.92 -1.00813 c 0
 48.59 23.2891 48.59 23.2891 27.2142 64.853 c 2
 20.0945 78.697 l 1
EndSplineSet
EndChar

StartChar: t
Encoding: 116 116 87
Width: 243
GlyphClass: 2
Flags: W
LayerCount: 2
Fore
SplineSet
187 442 m 1
 235 442 l 1
 235 318 l 1
 186 318 l 1
 186 -22 l 1
 51 -22 l 1
 51 320 l 1
 8 320 l 1
 8 442 l 1
 54 442 l 1
 54 534 l 1
 187 534 l 1
 187 442 l 1
EndSplineSet
EndChar

StartChar: u
Encoding: 117 117 88
Width: 472
GlyphClass: 2
Flags: W
LayerCount: 2
Fore
SplineSet
21 199 m 0,0,1
 21 269.128 21 269.128 21.5016 308.256 c 0,2,3
 22 347.128 22 347.128 22 356.5 c 2,4,-1
 22 449 l 1,5,-1
 156 449 l 1,6,-1
 156 190 l 2,7,8
 156 156.146 156 156.146 167.017 136.152 c 0,9,10
 176.903 118.21 176.903 118.21 190.372 113.282 c 0,11,12
 205.26 107.835 205.26 107.835 222.942 111.974 c 0,13,14
 242.16 116.471 242.16 116.471 259.195 129.766 c 128,-1,15
 276.253 143.08 276.253 143.08 288.245 166.206 c 0,16,17
 300 188.876 300 188.876 300 215.952 c 2,18,-1
 298.906 449 l 1,19,-1
 429.953 449 l 1,20,-1
 431.047 -20 l 1,21,-1
 298.615 -20 l 1,22,-1
 297.44 17.5985 l 1,23,24
 283.422 3.35029 283.422 3.35029 272.944 -1.88854 c 0,25,26
 236.721 -20 236.721 -20 198 -20 c 0,27,28
 100.411 -20 100.411 -20 59.4585 40.2582 c 0,29,30
 21 96.847 21 96.847 21 199 c 0,0,1
EndSplineSet
EndChar

StartChar: v
Encoding: 118 118 89
Width: 467
GlyphClass: 2
Flags: W
LayerCount: 2
Fore
SplineSet
468.679 448.664 m 1
 229.68 -86.785 l 1
 -0.264075 446.686 l 1
 139.171 448.138 l 1
 231.836 230.156 l 1
 334.319 450.141 l 1
 468.679 448.664 l 1
EndSplineSet
EndChar

StartChar: w
Encoding: 119 119 90
Width: 585
GlyphClass: 2
Flags: W
LayerCount: 2
Fore
SplineSet
392.937 227.1 m 1
 474.047 450.153 l 1
 608.484 448.692 l 1
 415.084 -80.8543 l 1
 310.328 123.474 l 1
 198.409 -78.8006 l 1
 3.35348 446.703 l 1
 141.87 448.146 l 1
 225.343 222.592 l 1
 312.452 385.196 l 1
 392.937 227.1 l 1
EndSplineSet
EndChar

StartChar: x
Encoding: 120 120 91
Width: 492
GlyphClass: 2
Flags: W
LayerCount: 2
Fore
SplineSet
-5.71817 -20 m 1
 82.5775 104.417 l 1
 170.847 234.063 l 1
 110.576 323.584 l 1
 22.269 446.678 l 1
 192.246 448.094 l 1
 250.32 351.649 l 1
 314.27 448 l 1
 468.37 448 l 1
 367.679 296.963 l 1
 326.954 235.028 l 1
 496.433 -21.354 l 1
 342.306 -19.9 l 1
 249.241 117.895 l 1
 225.935 82.3538 l 1
 164.303 -20 l 1
 -5.71817 -20 l 1
EndSplineSet
EndChar

StartChar: y
Encoding: 121 121 92
Width: 462
GlyphClass: 2
Flags: W
LayerCount: 2
Fore
SplineSet
160.695 75.5173 m 1
 -12.2313 446.676 l 1
 127.547 448.132 l 1
 233.656 226.023 l 1
 348.862 450.135 l 1
 483.801 448.652 l 1
 158.511 -220 l 1
 5.95123 -220 l 1
 160.695 75.5173 l 1
EndSplineSet
EndChar

StartChar: z
Encoding: 122 122 93
Width: 446
GlyphClass: 2
Flags: W
LayerCount: 2
Fore
SplineSet
38 325.903 m 1
 38 444 l 1
 448.37 444 l 1
 373.692 331.983 l 1
 225.968 106 l 1
 437 106 l 1
 437 -20 l 1
 -8.78955 -20 l 1
 227.086 326.817 l 1
 38 325.903 l 1
EndSplineSet
EndChar

StartChar: braceleft
Encoding: 123 123 94
Width: 268
GlyphClass: 2
Flags: W
LayerCount: 2
Fore
SplineSet
114.705 320.989 m 1
 123.381 313.268 123.381 313.268 129.084 303.899 c 0
 137.21 290.549 137.21 290.549 143.414 272.502 c 0
 149.575 254.577 149.575 254.577 151.836 237.059 c 0
 153.922 220.89 153.922 220.89 154.963 203.711 c 0
 156 186.607 156 186.607 156 174.5 c 2
 156 152.892 l 1
 155.878 151.791 l 2
 155.294 146.54 155.294 146.54 155.06 144.077 c 0
 162.999 51.7926 162.999 51.7926 240.266 -8.20295 c 2
 248 -14.2082 l 1
 248 -167.991 l 1
 219.241 -153.98 l 2
 136.594 -113.715 136.594 -113.715 83.1261 -37.4845 c 0
 29.5538 38.8957 29.5538 38.8957 20.0789 145.225 c 2
 20 146.111 l 1
 20 147 l 2
 20 148.588 20 148.588 20.5345 157.674 c 0
 21.0255 166.022 21.0255 166.022 21.5189 177.369 c 0
 21.9729 187.81 21.9729 187.81 21.0389 202.752 c 0
 20.1031 217.726 20.1031 217.726 17.7721 231.712 c 0
 15.5141 245.26 15.5141 245.26 10.9658 259.36 c 0
 6.85121 272.115 6.85121 272.115 0.975453 280.733 c 0
 -4.15966 288.265 -4.15966 288.265 -12.6 293.54 c 0
 -19.7359 298 -19.7359 298 -30 298 c 1
 -30 338 l 1
 -11.4285 338 -11.4285 338 -0.730769 356.154 c 0
 13.4816 380.272 13.4816 380.272 16.0797 409.284 c 0
 19 441.893 19 441.893 19 471.5 c 0
 19 500.041 19 500.041 20.2222 505.776 c 0
 28.3374 609.374 28.3374 609.374 81.8756 682.332 c 0
 136.057 756.168 136.057 756.168 220.984 793.323 c 2
 249 805.58 l 1
 249 661.679 l 1
 240.588 655.699 l 2
 165.257 602.148 165.257 602.148 153.987 503.758 c 0
 153.917 498.867 153.917 498.867 153.497 473.667 c 0
 152.985 442.936 152.985 442.936 149.92 408.716 c 0
 146.525 370.808 146.525 370.808 127.809 338.479 c 0
 122.289 328.946 122.289 328.946 114.705 320.989 c 1
135 144 m 1
EndSplineSet
EndChar

StartChar: bar
Encoding: 124 124 95
Width: 207
GlyphClass: 2
Flags: W
LayerCount: 2
Fore
SplineSet
171 237.938 m 1
 168.833 -20 l 1
 36 -20 l 1
 36 717 l 1
 169.956 717 l 1
 171 237.938 l 1
EndSplineSet
EndChar

StartChar: braceright
Encoding: 125 125 96
Width: 268
GlyphClass: 2
Flags: W
LayerCount: 2
Fore
SplineSet
229 338 m 1
 229 298 l 1
 218.736 298 218.736 298 211.6 293.54 c 0
 203.16 288.265 203.16 288.265 198.025 280.733 c 0
 191.983 271.872 191.983 271.872 187.349 258.812 c 0
 182.548 245.283 182.548 245.283 180.825 232.357 c 0
 178.917 218.051 178.917 218.051 177.961 202.752 c 0
 177.027 187.81 177.027 187.81 177.481 177.369 c 0
 177.975 166.022 177.975 166.022 178.465 157.674 c 0
 179 148.587 179 148.587 179 147 c 2
 179 146.111 l 1
 178.921 145.225 l 2
 169.446 38.8951 169.446 38.8951 115.874 -37.4845 c 0
 62.4063 -113.716 62.4063 -113.716 -20.2406 -153.98 c 2
 -49 -167.991 l 1
 -49 -14.2082 l 1
 -41.2659 -8.20295 l 2
 36.3771 52.0846 36.3771 52.0846 44 144.798 c 1
 44 152.902 l 1
 43 163.179 43 163.179 43 174.5 c 0
 43 186.605 43 186.605 44.0366 203.71 c 0
 45.0777 220.887 45.0777 220.887 47.1644 237.059 c 0
 49.3885 254.296 49.3885 254.296 54.9104 271.966 c 0
 60.7359 290.607 60.7359 290.607 69.7478 304.425 c 0
 75.4942 313.237 75.4942 313.237 84.1152 320.906 c 1
 76.4799 328.772 76.4799 328.772 70.8236 338.254 c 0
 51.4066 370.807 51.4066 370.807 48.5555 409.012 c 0
 46.0124 443.088 46.0124 443.088 45.5028 473.667 c 0
 45.0828 498.869 45.0828 498.869 45.0133 503.757 c 0
 33.7441 602.147 33.7441 602.147 -41.5876 655.699 c 2
 -50 661.679 l 1
 -50 805.58 l 1
 -21.9836 793.323 l 2
 62.9424 756.168 62.9424 756.168 117.124 682.332 c 0
 171.543 608.174 171.543 608.174 178.95 503.411 c 0
 179 502.166 l 2
 179.059 499.625 179.059 499.625 180 472.345 c 0
 180 441.891 180 441.891 182.92 409.284 c 0
 185.519 380.272 185.519 380.272 199.731 356.154 c 0
 210.428 338 210.428 338 229 338 c 1
64 144 m 1
EndSplineSet
EndChar

StartChar: asciitilde
Encoding: 126 126 97
Width: 496
GlyphClass: 2
Flags: W
LayerCount: 2
Fore
SplineSet
299.889 567.944 m 2,0,1
 302 563.722 302 563.722 305.131 563.386 c 0,2,3
 307.1 563.175 307.1 563.175 308.267 563.555 c 128,-1,4
 309.47 563.947 309.47 563.947 310.815 565.516 c 0,5,6
 310.865 566.366 310.865 566.366 310.505 567.211 c 2,7,-1
 292.412 585.304 l 1,8,-1
 389 628.999 l 1,9,-1
 389 600.832 l 1,10,11
 399.428 572.447 399.428 572.447 393.456 547.368 c 0,12,13
 386.583 518.5 386.583 518.5 361.768 502.646 c 0,14,15
 348.162 493.953 348.162 493.953 333.273 488.882 c 0,16,17
 324.983 486.058 324.983 486.058 316.33 484.37 c 0,18,19
 289.59 479.153 289.59 479.153 263.793 490.762 c 0,20,21
 237.099 502.774 237.099 502.774 223.943 530.401 c 2,22,-1
 215.508 548.115 l 1,23,-1
 290.944 585.833 l 1,24,-1
 299.889 567.944 l 2,0,1
224.111 530.056 m 2,25,26
 222 534.279 222 534.279 218.869 534.614 c 0,27,28
 216.9 534.825 216.9 534.825 215.733 534.445 c 128,-1,29
 214.53 534.053 214.53 534.053 213.185 532.484 c 0,30,31
 213.135 531.634 213.135 531.634 213.495 530.789 c 2,32,-1
 231.588 512.696 l 1,33,-1
 135 469.001 l 1,34,-1
 135 497.168 l 1,35,36
 124.572 525.552 124.572 525.552 130.544 550.632 c 0,37,38
 137.417 579.5 137.417 579.5 162.232 595.354 c 0,39,40
 175.837 604.046 175.837 604.046 190.727 609.118 c 0,41,42
 199.013 611.94 199.013 611.94 207.67 613.63 c 0,43,44
 234.408 618.847 234.408 618.847 260.207 607.238 c 0,45,46
 286.9 595.227 286.9 595.227 300.057 567.599 c 2,47,-1
 308.492 549.885 l 1,48,-1
 233.056 512.167 l 1,49,-1
 224.111 530.056 l 2,25,26
EndSplineSet
EndChar

StartChar: exclamdown
Encoding: 161 161 98
Width: 238
GlyphClass: 2
Flags: W
LayerCount: 2
Fore
SplineSet
54.2703 -19 m 1
 47.726 462 l 1
 178.775 462 l 1
 184.228 -19 l 1
 54.2703 -19 l 1
34 634 m 0
 34 670.981 34 670.981 58.7127 692.948 c 0
 82.3959 714 82.3959 714 112 714 c 0
 141.78 714 141.78 714 165.514 692.243 c 0
 190 669.798 190 669.798 190 632 c 0
 190 595.633 190 595.633 164.804 574.636 c 0
 141.044 554.835 141.044 554.835 111.546 555.505 c 0
 82.381 556.168 82.381 556.168 58.9495 576.345 c 0
 34 597.829 34 597.829 34 634 c 0
EndSplineSet
EndChar

StartChar: yen
Encoding: 165 165 99
Width: 604
GlyphClass: 2
Flags: W
LayerCount: 2
Fore
SplineSet
28.4494 220 m 1
 569.46 220 l 1
 566.551 92 l 1
 25.5403 92 l 1
 28.4494 220 l 1
24.5403 400 m 1
 565.551 400 l 1
 568.46 272 l 1
 27.4494 272 l 1
 24.5403 400 l 1
-21.2559 712 m 1
 132.725 712 l 1
 303.814 454.427 l 1
 471.143 712 l 1
 624.966 712 l 1
 374 328.043 l 1
 374 -16.442 l 1
 227.559 -20.5865 l 1
 234.903 325.627 l 1
 -21.2559 712 l 1
EndSplineSet
EndChar

StartChar: dieresis
Encoding: 168 168 100
Width: 713
GlyphClass: 2
Flags: W
LayerCount: 2
Fore
SplineSet
140 805 m 0,0,1
 140 840.981 140 840.981 164.713 862.948 c 0,2,3
 188.396 884 188.396 884 218 884 c 0,4,5
 247.242 884 247.242 884 270.804 864.364 c 0,6,7
 296 843.367 296 843.367 296 807 c 0,8,9
 296 769.202 296 769.202 271.514 746.757 c 0,10,11
 247.78 725 247.78 725 218 725 c 128,-1,12
 188.396 725 188.396 725 164.713 746.052 c 0,13,14
 140 768.019 140 768.019 140 805 c 0,0,1
388 800 m 0,15,16
 388 835.981 388 835.981 412.713 857.948 c 0,17,18
 436.396 879 436.396 879 466 879 c 0,19,20
 495.241 879 495.241 879 518.804 859.364 c 0,21,22
 544 838.368 544 838.368 544 802 c 0,23,24
 544 764.201 544 764.201 519.514 741.757 c 0,25,26
 495.779 720 495.779 720 466 720 c 128,-1,27
 436.396 720 436.396 720 412.713 741.052 c 0,28,29
 388 763.019 388 763.019 388 800 c 0,15,16
EndSplineSet
EndChar

StartChar: guillemotleft
Encoding: 171 171 101
Width: 605
GlyphClass: 2
Flags: W
LayerCount: 2
Fore
SplineSet
464 465.934 m 1
 464 330.41 l 1
 400.304 287.129 l 1
 463.891 239.031 l 1
 465.441 97.9869 l 1
 206.527 289.634 l 1
 464 465.934 l 1
257 467.676 m 1
 257 333.521 l 1
 193.298 289.42 l 1
 256.891 242.133 l 1
 258.436 99.9491 l 1
 -1.58853 292.748 l 1
 257 467.676 l 1
EndSplineSet
EndChar

StartChar: degree
Encoding: 176 176 102
Width: 560
GlyphClass: 2
Flags: W
LayerCount: 2
Fore
SplineSet
276 802 m 0,0,1
 276 797.912 276 797.912 277.526 797.086 c 0,2,3
 280.191 795.642 280.191 795.642 283.273 797.244 c 0,4,5
 285 798.142 285 798.142 285 803 c 0,6,7
 285 805.858 285 805.858 283.273 806.756 c 0,8,9
 280.555 808.169 280.555 808.169 278.077 806.724 c 0,10,11
 276 805.513 276 805.513 276 802 c 0,0,1
190 801 m 0,12,13
 190 842.648 190 842.648 219.55 866.152 c 0,14,15
 247.701 888.544 247.701 888.544 281.534 885.941 c 0,16,17
 313.802 883.458 313.802 883.458 340.665 861.479 c 0,18,19
 370 837.477 370 837.477 370 799 c 0,20,21
 370 758.688 370 758.688 340.872 734.193 c 0,22,23
 313.624 711.279 313.624 711.279 280.769 710.015 c 0,24,25
 246.893 708.711 246.893 708.711 218.928 732.864 c 0,26,27
 190 757.847 190 757.847 190 801 c 0,12,13
EndSplineSet
EndChar

StartChar: plusminus
Encoding: 177 177 103
Width: 495
GlyphClass: 2
Flags: W
LayerCount: 2
Fore
SplineSet
462 107 m 1
 34 107 l 1
 34 236.949 l 1
 462 238.052 l 1
 462 107 l 1
449 454.147 m 1
 313.128 453.147 l 1
 314.129 298 l 1
 183 298 l 1
 183 452.858 l 1
 42 451.858 l 1
 42 582.14 l 1
 184.582 581.143 l 1
 181.585 727 l 1
 312 727 l 1
 312 583.146 l 1
 449 584.146 l 1
 449 454.147 l 1
EndSplineSet
EndChar

StartChar: uni00B2
Encoding: 178 178 104
Width: 402
GlyphClass: 2
Flags: W
LayerCount: 2
Fore
SplineSet
110.433 505 m 1
 286.649 734.544 l 1
 307.973 767.765 307.973 767.765 304.255 790.815 c 0
 302.692 800.505 302.692 800.505 297.603 805.595 c 0
 292.513 810.686 292.513 810.686 280.419 813.532 c 0
 269.737 816.045 269.737 816.045 254.223 809.551 c 0
 241.102 804.059 241.102 804.059 236.974 791.675 c 2
 228.846 767.291 l 1
 153.404 815.651 l 1
 160.919 831.548 l 2
 192.506 898.366 192.506 898.366 275.487 895.994 c 0
 333.792 894.827 333.792 894.827 364.548 862.224 c 0
 396.014 828.869 396.014 828.869 389.346 775.519 c 0
 383.218 726.495 383.218 726.495 345.147 673.197 c 1
 283.15 590.294 l 1
 400 591.146 l 1
 400 505 l 1
 110.433 505 l 1
EndSplineSet
EndChar

StartChar: uni00B3
Encoding: 179 179 105
Width: 382
GlyphClass: 2
Flags: W
LayerCount: 2
Fore
SplineSet
266.834 749.954 m 1
 278.272 752.67 278.272 752.67 284.636 767.422 c 0
 291.95 784.378 291.95 784.378 285.111 798.056 c 0
 279.369 809.542 279.369 809.542 261.769 813.452 c 0
 252.104 815.487 252.104 815.487 241.468 814.403 c 0
 236.17 813.862 236.17 813.862 230.632 812.544 c 0
 218.204 809.585 218.204 809.585 212.483 799.287 c 2
 202.208 780.792 l 1
 128.34 827.446 l 1
 140.776 844.696 l 2
 170.831 886.383 170.831 886.383 230.225 892.904 c 0
 244.104 894.427 244.104 894.427 259.281 894 c 0
 296.898 894 296.898 894 325.85 875.301 c 0
 355.028 856.456 355.028 856.456 366.925 828.279 c 0
 378.73 800.32 378.73 800.32 372.689 766.484 c 0
 368.252 741.64 368.252 741.64 352.4 719.438 c 1
 378.076 687.667 378.076 687.667 385.091 653.526 c 0
 393.983 610.245 393.983 610.245 376.889 576.056 c 0
 360.438 543.154 360.438 543.154 326.33 521.186 c 0
 292.367 499.311 292.367 499.311 249.335 498.998 c 1
 189.877 497.088 189.877 497.088 132.658 527.316 c 2
 110.579 538.98 l 1
 165.475 603.342 l 1
 179.123 597.276 l 2
 195.678 589.918 195.678 589.918 209.153 586.325 c 0
 221.62 583 221.62 583 229 583 c 2
 251 583 l 2
 276.459 583 276.459 583 289.001 601.305 c 0
 302.26 620.655 302.26 620.655 296.212 642.711 c 0
 290.897 662.095 290.897 662.095 270.348 670.075 c 1
 208.508 671.419 l 1
 206.479 748.517 l 1
 266.834 749.954 l 1
EndSplineSet
EndChar

StartChar: acute
Encoding: 180 180 106
Width: 1000
GlyphClass: 2
Flags: W
LayerCount: 2
Fore
SplineSet
424.851 1014.89 m 1,0,-1
 514.609 909.211 l 1,1,-1
 332.914 764.572 l 1,2,-1
 255.634 837.215 l 1,3,-1
 424.851 1014.89 l 1,0,-1
EndSplineSet
EndChar

StartChar: uni00B9
Encoding: 185 185 107
Width: 284
GlyphClass: 2
Flags: W
LayerCount: 2
Fore
SplineSet
154.16 751.228 m 1
 100.489 799.704 l 1
 182.795 877.096 l 1
 241.139 940.108 l 1
 243 832.172 l 1
 243 589 l 1
 244 589 l 1
 244 510 l 1
 155 510 l 1
 155 568.954 l 1
 154.16 751.228 l 1
EndSplineSet
EndChar

StartChar: guillemotright
Encoding: 187 187 108
Width: 605
GlyphClass: 2
Flags: W
LayerCount: 2
Fore
SplineSet
14 465.934 m 1
 271.473 289.634 l 1
 12.5591 97.9869 l 1
 14.109 239.031 l 1
 77.6958 287.129 l 1
 14 330.41 l 1
 14 465.934 l 1
221 467.676 m 1
 479.589 292.748 l 1
 219.563 99.9491 l 1
 221.109 242.132 l 1
 284.702 289.42 l 1
 221 333.521 l 1
 221 467.676 l 1
EndSplineSet
EndChar

StartChar: questiondown
Encoding: 191 191 109
Width: 548
GlyphClass: 2
Flags: W
LayerCount: 2
Fore
SplineSet
300 97 m 0
 326.866 97 326.866 97 345.071 104.861 c 0
 362.622 112.44 362.622 112.44 371.045 122.695 c 0
 382.958 137.197 382.958 137.197 398.409 153.679 c 2
 416.404 172.873 l 1
 479.773 68.7662 l 1
 469.948 57.7127 l 2
 435.034 18.4342 435.034 18.4342 391.016 -0.823146 c 0
 347.183 -20 347.183 -20 287 -20 c 0
 190 -20 190 -20 131.707 35.5172 c 0
 73 91.4287 73 91.4287 73 182 c 0
 73 227.781 73 227.781 93.162 267.545 c 0
 112.547 305.777 112.547 305.777 155.61 349.89 c 2
 197.424 393.696 l 2
 231.285 430.302 231.285 430.302 236.435 446.545 c 0
 242 464.094 242 464.094 242 513 c 2
 242 514.172 l 1
 246.11 549.104 l 1
 381.648 556.091 l 1
 380 501.697 l 1
 380 439.407 380 439.407 361.996 402.275 c 0
 344.582 366.358 344.582 366.358 304.469 325.191 c 1
 261.782 279.526 l 2
 253.167 269.834 253.167 269.834 243.287 261.052 c 0
 235.735 254.339 235.735 254.339 228.909 245.379 c 0
 221.362 235.474 221.362 235.474 215.269 226.1 c 0
 210.092 218.136 210.092 218.136 206.89 208.93 c 0
 204.283 201.435 204.283 201.435 204.931 193.661 c 2
 204.978 193.092 l 1
 206.316 141.805 206.316 141.805 228.722 119.403 c 0
 251.127 97 251.127 97 300 97 c 0
390 690 m 0
 390 653.829 390 653.829 365.05 632.345 c 0
 341.619 612.167 341.619 612.167 312.454 611.505 c 0
 282.956 610.835 282.956 610.835 259.196 630.636 c 0
 234 651.633 234 651.633 234 688 c 0
 234 725.798 234 725.798 258.486 748.243 c 0
 282.22 770 282.22 770 312 770 c 0
 341.604 770 341.604 770 365.287 748.948 c 0
 390 726.981 390 726.981 390 690 c 0
EndSplineSet
EndChar

StartChar: Odieresis
Encoding: 214 214 127
Width: 812
GlyphClass: 2
Flags: W
LayerCount: 2
Fore
SplineSet
398 -3 m 1
EndSplineSet
Refer: 50 79 N 1 0 0 1 0 0 2
Refer: 100 168 S 1 0 0 1 26 0 2
EndChar

StartChar: multiply
Encoding: 215 215 128
Width: 495
GlyphClass: 2
Flags: W
LayerCount: 2
Fore
SplineSet
433.211 457.073 m 1
 337.275 360.138 l 1
 447.349 251.065 l 1
 355.064 158.78 l 1
 245.208 267.638 l 1
 147.144 167.572 l 1
 54.7157 260 l 1
 155.367 360.651 l 1
 50.3666 460.651 l 1
 143 553.284 l 1
 244.853 451.431 l 1
 340.853 549.431 l 1
 433.211 457.073 l 1
EndSplineSet
EndChar

StartChar: germandbls
Encoding: 223 223 130
Width: 517
GlyphClass: 2
Flags: W
LayerCount: 2
Fore
SplineSet
150.688 424 m 1
 169 424 l 2
 182.47 424 182.47 424 210.449 425.472 c 0
 235.496 426.79 235.496 426.79 241.389 426.972 c 0
 270.284 431.452 270.284 431.452 288.014 448.797 c 0
 306.104 466.493 306.104 466.493 309.181 489.187 c 0
 312.631 514.629 312.631 514.629 305.72 539.681 c 0
 299.5 562.228 299.5 562.228 278.806 578.148 c 0
 257.961 594.182 257.961 594.182 227.46 595.007 c 2
 208 595.533 l 2
 208 596 208 596 150.968 596 c 1
 150.688 424 l 1
150.187 115 m 1
 284 115 l 2
 314.954 115 314.954 115 334.149 133.428 c 0
 353.948 152.435 353.948 152.435 357.129 180.271 c 0
 360.722 211.702 360.722 211.702 353.081 242.716 c 0
 346.014 271.397 346.014 271.397 323.412 292.325 c 0
 301.935 312.211 301.935 312.211 272.46 313.007 c 2
 253 313.533 l 2
 253 314 253 314 169 314 c 2
 150.51 313.996 l 1
 150.187 115 l 1
261.998 -20 m 1
 73 -20 l 2
 73 -19.4123 73 -19.4123 44.4081 -19.9958 c 2
 24 -20.4123 l 1
 24 708 l 1
 250.055 708 l 1
 252.978 706.052 l 1
 299.246 705.716 299.246 705.716 336.744 687.487 c 0
 377.208 667.817 377.208 667.817 400.637 635.815 c 0
 423.515 604.566 423.515 604.566 432.95 565.157 c 0
 442.394 525.712 442.394 525.712 436.228 488.712 c 0
 429.936 450.96 429.936 450.96 405.566 418.089 c 0
 395.398 404.373 395.398 404.373 382.278 393.097 c 1
 406.137 383.753 406.137 383.753 425.718 366.51 c 0
 463.24 333.467 463.24 333.467 479.452 285.391 c 0
 495.233 238.589 495.233 238.589 491.45 185.089 c 0
 487.663 131.521 487.663 131.521 464.303 85.8866 c 0
 440.149 38.7009 440.149 38.7009 389.124 8.75168 c 0
 339.018 -20.6581 339.018 -20.6581 271.685 -19.0312 c 1
 261.998 -20 l 1
EndSplineSet
EndChar

StartChar: dotlessi
Encoding: 305 305 165
Width: 207
GlyphClass: 2
Flags: W
LayerCount: 2
Fore
SplineSet
38.9078 453 m 1,0,-1
 171 453 l 1,1,-1
 171 -22 l 1,2,-1
 41.0917 -22 l 1,3,-1
 38.9078 453 l 1,0,-1
EndSplineSet
EndChar

StartChar: jcircumflex
Encoding: 309 309 167
Width: 207
GlyphClass: 2
Flags: W
LayerCount: 2
Fore
SplineSet
39 450 m 1
 171.038 450 l 1
 169.962 -122 l 1
 39 -122 l 1
 39 450 l 1
EndSplineSet
Refer: 65 94 S 1 0 0 1 -195 -35 2
EndChar

StartChar: uni030A
Encoding: 778 778 174
Width: 154
GlyphClass: 2
Flags: W
LayerCount: 2
Fore
SplineSet
72 791 m 0
 72 786.912 72 786.912 73.5257 786.086 c 0
 75.8394 784.833 75.8394 784.833 78.7279 786.45 c 0
 81 787.722 81 787.722 81 792 c 0
 81 794.858 81 794.858 79.2729 795.756 c 0
 76.1915 797.358 76.1915 797.358 73.5257 795.914 c 0
 72 795.088 72 795.088 72 791 c 0
-14 790 m 0
 -14 832.821 -14 832.821 15.771 855.826 c 0
 43.8615 877.532 43.8615 877.532 77.5339 874.941 c 0
 109.801 872.458 109.801 872.458 136.665 850.479 c 0
 166 826.477 166 826.477 166 788 c 0
 166 747.687 166 747.687 136.872 723.193 c 0
 109.458 700.14 109.458 700.14 76.3845 699.504 c 0
 42.8752 698.859 42.8752 698.859 15.128 722.193 c 0
 -14 746.687 -14 746.687 -14 790 c 0
EndSplineSet
EndChar

StartChar: Delta
Encoding: 916 916 175
Width: 674
GlyphClass: 2
Flags: W
LayerCount: 2
Fore
SplineSet
328.005 782.365 m 1
 388.278 647.118 l 1
 683.751 -19 l 1
 558.116 -19 l 1
 472.116 -20 l 1
 196.877 -20 l 1
 115.877 -19 l 1
 -9.21539 -19 l 1
 280.508 663.622 l 1
 328.005 782.365 l 1
494.029 102 m 1
 331.047 463.068 l 1
 185.617 102 l 1
 494.029 102 l 1
EndSplineSet
EndChar

StartChar: beta
Encoding: 946 946 176
Width: 517
GlyphClass: 2
Flags: W
LayerCount: 2
Fore
SplineSet
150.739 424 m 1
 169 424 l 2
 182.47 424 182.47 424 210.449 425.472 c 0
 235.496 426.79 235.496 426.79 241.389 426.972 c 0
 270.284 431.452 270.284 431.452 288.014 448.797 c 0
 306.104 466.493 306.104 466.493 309.181 489.187 c 0
 312.631 514.629 312.631 514.629 305.72 539.681 c 0
 299.5 562.228 299.5 562.228 278.806 578.148 c 0
 257.961 594.182 257.961 594.182 227.46 595.007 c 2
 208 595.533 l 2
 208 596 208 596 150.973 596 c 1
 150.739 424 l 1
150.319 115 m 1
 284 115 l 2
 314.954 115 314.954 115 334.149 133.428 c 0
 353.948 152.435 353.948 152.435 357.129 180.271 c 0
 360.722 211.702 360.722 211.702 353.081 242.716 c 0
 346.014 271.397 346.014 271.397 323.412 292.325 c 0
 301.935 312.211 301.935 312.211 272.46 313.007 c 2
 253 313.533 l 2
 253 314 253 314 169 314 c 2
 150.59 313.995 l 1
 150.319 115 l 1
150.136 -20.0047 m 1
 149.973 -140 l 1
 73 -140 l 2
 73 -139.412 73 -139.412 44.4081 -139.996 c 2
 24 -140.412 l 1
 24 708 l 1
 250.055 708 l 1
 252.978 706.052 l 1
 299.246 705.716 299.246 705.716 336.744 687.487 c 0
 377.208 667.817 377.208 667.817 400.637 635.815 c 0
 423.515 604.566 423.515 604.566 432.95 565.157 c 0
 442.394 525.712 442.394 525.712 436.228 488.712 c 0
 429.936 450.96 429.936 450.96 405.566 418.089 c 0
 395.398 404.373 395.398 404.373 382.278 393.097 c 1
 406.137 383.753 406.137 383.753 425.718 366.51 c 0
 463.24 333.467 463.24 333.467 479.452 285.391 c 0
 495.233 238.589 495.233 238.589 491.45 185.089 c 0
 487.663 131.521 487.663 131.521 464.303 85.8866 c 0
 440.149 38.7009 440.149 38.7009 389.124 8.75168 c 0
 339.018 -20.6581 339.018 -20.6581 271.685 -19.0312 c 1
 261.998 -20 l 1
 150.136 -20.0047 l 1
EndSplineSet
EndChar

StartChar: quoteleft
Encoding: 8216 8216 177
Width: 187
GlyphClass: 2
Flags: W
LayerCount: 2
Fore
SplineSet
147.004 621.494 m 1
 150.197 593.797 150.197 593.797 132.648 573.441 c 0
 116.214 554.378 116.214 554.378 94.4149 548.247 c 0
 68.527 540.966 68.527 540.966 45.5061 559.383 c 0
 23.9678 576.613 23.9678 576.613 20.0686 614.305 c 1
 16.604 666.275 16.604 666.275 44.6908 709.838 c 0
 73.0026 753.75 73.0026 753.75 106.675 764.974 c 2
 163.289 783.845 l 1
 129.481 734.669 l 2
 121.828 723.538 121.828 723.538 120.992 693.445 c 0
 120.296 668.361 120.296 668.361 125.982 659.492 c 1
 145.478 643.982 145.478 643.982 147.004 621.494 c 1
EndSplineSet
EndChar

StartChar: quoteright
Encoding: 8217 8217 178
Width: 187
GlyphClass: 2
Flags: W
LayerCount: 2
Fore
SplineSet
36.1752 679.139 m 1
 31.0586 706.049 31.0586 706.049 46.6899 728.075 c 0
 61.351 748.733 61.351 748.733 82.8118 756.349 c 0
 107.925 765.26 107.925 765.26 132.331 748.481 c 0
 155.219 732.745 155.219 732.745 161.761 696.11 c 1
 168.695 645.258 168.695 645.258 144.116 599.531 c 0
 119.355 553.465 119.355 553.465 88.0548 539.694 c 2
 33.1724 515.545 l 1
 62.5685 567.805 l 2
 68.7151 578.733 68.7151 578.733 67.0292 609.92 c 0
 65.6391 635.635 65.6391 635.635 59.9267 642.022 c 1
 38.4982 656.942 38.4982 656.942 36.1752 679.139 c 1
EndSplineSet
EndChar

StartChar: quotedblleft
Encoding: 8220 8220 179
Width: 292
GlyphClass: 2
Flags: W
LayerCount: 2
Fore
SplineSet
269.884 624.302 m 0
 272.306 597.368 272.306 597.368 255.617 576.506 c 0
 239.351 556.172 239.351 556.172 216.212 550.563 c 0
 190.172 544.25 190.172 544.25 167.506 562.383 c 0
 146.001 579.586 146.001 579.586 142.114 615.869 c 0
 142.02 617.112 l 1
 139.741 668.379 139.741 668.379 167.09 711.68 c 0
 194.904 755.717 194.904 755.717 228.675 766.974 c 2
 288.287 786.844 l 1
 251.128 736.173 l 2
 243.911 726.331 243.911 726.331 243.498 696.226 c 0
 243.151 670.912 243.151 670.912 248.166 662.345 c 1
 267.731 646.802 267.731 646.802 269.884 624.302 c 0
147.004 621.494 m 1
 150.197 593.797 150.197 593.797 132.648 573.441 c 0
 116.214 554.378 116.214 554.378 94.4149 548.247 c 0
 68.527 540.966 68.527 540.966 45.5061 559.383 c 0
 23.9678 576.613 23.9678 576.613 20.0686 614.305 c 1
 16.604 666.275 16.604 666.275 44.6908 709.838 c 0
 73.0026 753.75 73.0026 753.75 106.675 764.974 c 2
 163.289 783.845 l 1
 129.481 734.669 l 2
 121.828 723.538 121.828 723.538 120.992 693.445 c 0
 120.296 668.361 120.296 668.361 125.982 659.492 c 1
 145.478 643.982 145.478 643.982 147.004 621.494 c 1
EndSplineSet
EndChar

StartChar: quotedblright
Encoding: 8221 8221 180
Width: 358
GlyphClass: 2
Flags: W
LayerCount: 2
Fore
SplineSet
171.186 682.034 m 1
 166.026 707.796 166.026 707.796 181.519 730.331 c 0
 196.378 751.943 196.378 751.943 218.36 759.034 c 0
 242.969 766.973 242.969 766.973 266.973 751.221 c 0
 290.175 735.995 290.175 735.995 296.766 699.081 c 1
 303.688 647.173 303.688 647.173 279.066 601.939 c 0
 254.479 556.765 254.479 556.765 223.655 541.97 c 2
 166.471 514.522 l 1
 197.568 569.805 l 2
 203.715 580.732 203.715 580.732 202.029 611.92 c 0
 200.617 638.042 200.617 638.042 194.492 645.308 c 1
 173.425 660.638 173.425 660.638 171.186 682.034 c 1
36.1752 679.139 m 1
 31.0586 706.049 31.0586 706.049 46.6899 728.075 c 0
 61.351 748.733 61.351 748.733 82.8118 756.349 c 0
 107.925 765.26 107.925 765.26 132.331 748.481 c 0
 155.219 732.745 155.219 732.745 161.761 696.11 c 1
 168.695 645.258 168.695 645.258 144.116 599.531 c 0
 119.355 553.465 119.355 553.465 88.0548 539.694 c 2
 33.1724 515.545 l 1
 62.5685 567.805 l 2
 68.7151 578.733 68.7151 578.733 67.0292 609.92 c 0
 65.6391 635.635 65.6391 635.635 59.9267 642.022 c 1
 38.4982 656.942 38.4982 656.942 36.1752 679.139 c 1
EndSplineSet
EndChar

StartChar: Euro
Encoding: 8364 8364 182
Width: 715
Flags: W
LayerCount: 2
Fore
SplineSet
597.614 313 m 1
 552.979 191 l 1
 -3.61354 191 l 1
 41.0206 313 l 1
 597.614 313 l 1
650.541 475 m 1
 602.541 355 l 1
 3.47026 355 l 1
 42.4703 475 l 1
 650.541 475 l 1
702.657 648.725 m 1
 655.182 506.3 l 1
 633.319 547.652 l 2
 625.596 562.258 625.596 562.258 585.508 578.456 c 0
 552.424 591.824 552.424 591.824 493.26 594.014 c 0
 418.356 596.786 418.356 596.786 347.05 552.509 c 0
 275.598 508.141 275.598 508.141 242.128 436.552 c 0
 197.69 341.198 197.69 341.198 232.203 250.085 c 0
 266.807 158.732 266.807 158.732 363.448 114.128 c 0
 410.64 91.9202 410.64 91.9202 462.357 90.9968 c 0
 514.649 90.0631 514.649 90.0631 560.665 106.796 c 0
 607.438 123.804 607.438 123.804 651.112 156.084 c 2
 683 179.653 l 1
 683 32.1526 l 1
 676.453 26.2012 l 2
 628.429 -17.4576 628.429 -17.4576 592.104 -25.0743 c 0
 559.67 -31.8753 559.67 -31.8753 500.205 -35.4637 c 0
 440.152 -39.0875 440.152 -39.0875 386.618 -31.2912 c 0
 331.811 -23.3097 331.811 -23.3097 295.819 -4.76815 c 0
 149.82 70.8579 149.82 70.8579 101.17 206.759 c 0
 52.3933 343.016 52.3933 343.016 121.876 491.458 c 0
 173.454 601.983 173.454 601.983 275.671 663.626 c 0
 377.668 725.137 377.668 725.137 495.818 719.983 c 0
 557.031 717.624 557.031 717.624 629.98 688.049 c 0
 669.644 672.182 669.644 672.182 690.584 657.304 c 2
 702.657 648.725 l 1
EndSplineSet
EndChar

StartChar: brokenbar
Encoding: 166 166 187
Width: 207
Flags: W
LayerCount: 2
Fore
SplineSet
43 335 m 1
 166.81 335 l 1
 170.191 -20 l 1
 43 -20 l 1
 43 335 l 1
44.0646 716 m 1
 168.065 716 l 1
 166.935 367 l 1
 42.9352 367 l 1
 44.0646 716 l 1
EndSplineSet
EndChar

